<?xml version="1.0" encoding="UTF-8" standalone="no"?>
<!-- Created with Inkscape (http://www.inkscape.org/) -->

<svg
   xmlns:dc="http://purl.org/dc/elements/1.1/"
   xmlns:cc="http://creativecommons.org/ns#"
   xmlns:rdf="http://www.w3.org/1999/02/22-rdf-syntax-ns#"
   xmlns:svg="http://www.w3.org/2000/svg"
   xmlns="http://www.w3.org/2000/svg"
   xmlns:sodipodi="http://sodipodi.sourceforge.net/DTD/sodipodi-0.dtd"
   xmlns:inkscape="http://www.inkscape.org/namespaces/inkscape"
   id="svg4992"
   height="116.00035"
   width="610.00159"
   version="1.1"
   viewBox="0 0 161.39627 30.691773"
   sodipodi:docname="ck-.svg"
   inkscape:version="0.92.5 (2060ec1f9f, 2020-04-08)">
  <defs
     id="defs1374" />
  <sodipodi:namedview
     pagecolor="#ffffff"
     bordercolor="#666666"
     borderopacity="1"
     objecttolerance="10"
     gridtolerance="10"
     guidetolerance="10"
     inkscape:pageopacity="0"
     inkscape:pageshadow="2"
     inkscape:window-width="1136"
     inkscape:window-height="517"
     id="namedview1372"
     showgrid="false"
     fit-margin-top="0"
     fit-margin-left="0"
     fit-margin-right="0"
     fit-margin-bottom="0"
     inkscape:zoom="0.55154329"
     inkscape:cx="310.04921"
     inkscape:cy="-111.86038"
     inkscape:window-x="444"
     inkscape:window-y="327"
     inkscape:window-maximized="0"
     inkscape:current-layer="svg4992" />
  <metadata
     id="metadata4989">
    <rdf:RDF>
      <cc:Work
         rdf:about="">
        <dc:format>image/svg+xml</dc:format>
        <dc:type
           rdf:resource="http://purl.org/dc/dcmitype/StillImage" />
        <dc:title></dc:title>
      </cc:Work>
    </rdf:RDF>
  </metadata>
  <g
     id="g5675"
     transform="translate(-5.819534,-3.7031687)">
    <g
       id="g4794"
       transform="translate(659.0708,-268.147)">
      <path
         id="path4784"
         style="color:#000000;fill:#fa5b1b"
         d="m -638.69,291.99 c -1.7722,-1.0243 -2.3812,-3.2898 -1.3601,-5.0602 1.021,-1.7704 3.2854,-2.3752 5.0577,-1.3509 1.7722,1.0243 2.3812,3.2898 1.3602,5.0602 -1.0211,1.7704 -3.2854,2.3752 -5.0577,1.3509 z"
         inkscape:connector-curvature="0" />
      <path
         id="path4786"
         style="color:#000000;fill:#8f2a7a"
         d="m -622.82,291.08 c -1.2659,-0.73166 -1.7009,-2.35 -0.97157,-3.6146 0.72935,-1.2646 2.3468,-1.6966 3.6128,-0.96499 1.2659,0.73166 1.7009,2.35 0.97157,3.6146 -0.72935,1.2646 -2.3468,1.6966 -3.6128,0.96499 z"
         inkscape:connector-curvature="0" />
      <path
         id="path4788"
         style="color:#000000;fill:#bf0f62"
         d="m -629.17,291.08 c -1.2659,-0.73166 -1.7009,-2.35 -0.97157,-3.6146 0.72935,-1.2646 2.3468,-1.6966 3.6128,-0.96499 1.2659,0.73166 1.7009,2.35 0.97157,3.6146 -0.72935,1.2646 -2.3468,1.6966 -3.6128,0.96499 z"
         inkscape:connector-curvature="0" />
      <circle
         id="ellipse4790"
         style="color:#000000;fill:none;stroke:#808080;stroke-width:0.52916998;stroke-linecap:round;stroke-linejoin:round"
         transform="scale(-1,1)"
         cy="288.79001"
         cx="640.52002"
         r="8.7314997" />
      <path
         id="path4792"
         style="color:#000000;fill:none;stroke:#808080;stroke-width:1.58749998"
         d="m -652.69,300.96 5.9965,-5.9965"
         inkscape:connector-curvature="0" />
    </g>
    <g
       id="g4834"
       transform="matrix(0.26458,0,0,0.26458,84.72,-8.74)">
      <path
         id="path4816"
         style="color:#000000;fill:none;stroke:#808080;stroke-width:2"
         d="m 24.327,123.21 c -10.05,-5.81 -13.503,-18.66 -7.713,-28.697 5.79,-10.039 18.631,-13.469 28.681,-7.661 10.05,5.809 13.503,18.658 7.713,28.698 -5.79,10.04 -18.631,13.47 -28.681,7.66 z"
         inkscape:connector-curvature="0" />
      <path
         id="path4818"
         style="color:#000000;fill:none;stroke:#808080;stroke-width:2"
         d="m -27.673,159.21 c -10.05,-5.8085 -13.503,-18.656 -7.713,-28.695 5.7901,-10.04 18.631,-13.469 28.681,-7.6609 10.05,5.8085 13.503,18.656 7.713,28.695 -5.7901,10.04 -18.631,13.469 -28.681,7.6609 z"
         inkscape:connector-curvature="0" />
      <path
         id="path4820"
         style="color:#000000;fill:none;stroke:#808080;stroke-width:2"
         d="m -27.673,87.208 c -10.05,-5.808 -13.503,-18.656 -7.713,-28.695 5.79,-10.04 18.631,-13.47 28.681,-7.661 10.05,5.808 13.503,18.656 7.7128,28.695 -5.7901,10.04 -18.631,13.47 -28.681,7.661 z"
         inkscape:connector-curvature="0" />
      <path
         id="path4822"
         style="color:#000000;fill:#fa5b1b"
         d="m -22.18,77.685 c -4.7846,-2.7653 -6.4287,-8.8817 -3.6721,-13.661 2.7566,-4.7796 8.87,-6.4125 13.655,-3.6472 4.7846,2.7653 6.4287,8.8817 3.6721,13.661 -2.7566,4.7796 -8.87,6.4125 -13.655,3.6472 z"
         inkscape:connector-curvature="0" />
      <path
         id="path4824"
         style="color:#000000;fill:#8f2a7a"
         d="m -22.18,149.68 c -4.7846,-2.7653 -6.4287,-8.8817 -3.6721,-13.661 2.7566,-4.7796 8.87,-6.4125 13.655,-3.6472 4.7846,2.7653 6.4287,8.8817 3.6721,13.661 -2.7566,4.7796 -8.87,6.4125 -13.655,3.6472 z"
         inkscape:connector-curvature="0" />
      <path
         id="path4826"
         style="color:#000000;fill:#bf0f62"
         d="m 29.82,113.68 c -4.7846,-2.7653 -6.4287,-8.8817 -3.6721,-13.661 2.7566,-4.7796 8.87,-6.4125 13.655,-3.6472 4.7846,2.7653 6.4287,8.8817 3.6721,13.661 -2.7566,4.7796 -8.87,6.4125 -13.655,3.6472 z"
         inkscape:connector-curvature="0" />
      <path
         id="path4828"
         style="color:#000000;font-variant-ligatures:normal;font-variant-position:normal;font-variant-caps:normal;font-variant-numeric:normal;font-variant-alternates:normal;font-feature-settings:normal;text-indent:0;text-decoration:none;text-decoration-line:none;text-decoration-style:solid;text-decoration-color:#000000;text-transform:none;white-space:normal;shape-padding:0;isolation:auto;mix-blend-mode:normal;solid-color:#000000;fill:#808080;color-rendering:auto;image-rendering:auto;shape-rendering:auto"
         d="m 325.83,-192.87 c -0.35569,0.57157 -0.73608,1.1192 -1.1367,1.6445 l 17.49,12.107 c 0.35541,-0.57117 0.7286,-1.1234 1.1289,-1.6484 z m 16.375,35.982 -17.533,12.139 c 0.40657,0.53136 0.7812,1.0828 1.1328,1.6465 l 17.533,-12.139 c -0.40667,-0.53127 -0.78109,-1.0829 -1.1328,-1.6465 z"
         transform="translate(-325.19,273.03)"
         inkscape:connector-curvature="0" />
      <circle
         id="circle4830"
         style="color:#000000;fill:#808080"
         cx="8.8107996"
         cy="87.029999"
         r="4" />
      <circle
         id="circle4832"
         style="color:#000000;fill:#808080"
         cy="123.03"
         cx="8.8107996"
         r="4" />
    </g>
    <path
       id="path4850"
       style="color:#000000;font-variant-ligatures:normal;font-variant-position:normal;font-variant-caps:normal;font-variant-numeric:normal;font-variant-alternates:normal;font-feature-settings:normal;text-indent:0;text-decoration:none;text-decoration-line:none;text-decoration-style:solid;text-decoration-color:#000000;text-transform:none;white-space:normal;shape-padding:0;isolation:auto;mix-blend-mode:normal;solid-color:#000000;fill:none;stroke:#808080;stroke-width:0.52916998;color-rendering:auto;image-rendering:auto;shape-rendering:auto"
       d="m 153.45,8.47 c -2.5136,0 -4.8068,1.3578 -6.0251,3.5105 -0.77667,-0.62553 -1.7357,-0.99421 -2.7432,-0.99571 -2.4086,0 -4.3642,1.9244 -4.3642,4.2945 0,0.32892 0.0543,0.65367 0.13014,0.9731 -3.0667,0.75745 -5.2424,3.45 -5.2464,6.5738 0,3.7594 3.1018,6.8105 6.923,6.8105 h 17.904 c 3.8213,0 6.923,-3.051 6.923,-6.8105 0,-3.6542 -2.9488,-6.6129 -6.6385,-6.7665 0.0327,-0.25851 0.0586,-0.5183 0.0605,-0.77919 v -8.5e-4 c 0,-3.7594 -3.1008,-6.8093 -6.9218,-6.8093 z"
       inkscape:connector-curvature="0" />
    <path
       id="ellipse6424"
       style="color:#000000;fill:#8f2a7a"
       d="m 153.2,25.05 a 2.6536,2.6451 17.177 0 1 -0.97431,-3.6152 2.6536,2.6451 17.177 0 1 3.623,-0.96511 2.6536,2.6451 17.177 0 1 0.97435,3.6151 2.6536,2.6451 17.177 0 1 -3.623,0.96516 z"
       inkscape:connector-curvature="0" />
    <path
       id="ellipse6427"
       style="color:#000000;fill:#bf0f62"
       d="m 146.85,25.05 a 2.6536,2.6451 17.177 0 1 -0.97434,-3.6151 2.6536,2.6451 17.177 0 1 3.623,-0.96512 2.6536,2.6451 17.177 0 1 0.97429,3.6151 2.6536,2.6451 17.177 0 1 -3.623,0.96514 z"
       inkscape:connector-curvature="0" />
    <path
       id="ellipse6429"
       style="color:#000000;fill:#fa5b1b"
       d="m 140.5,25.05 a 2.6536,2.6451 17.177 0 1 -0.97431,-3.6152 2.6536,2.6451 17.177 0 1 3.623,-0.96511 2.6536,2.6451 17.177 0 1 0.97434,3.6151 2.6536,2.6451 17.177 0 1 -3.623,0.96516 z"
       inkscape:connector-curvature="0" />
    <path
       id="path4740"
       style="color:#000000;font-variant-ligatures:normal;font-variant-position:normal;font-variant-caps:normal;font-variant-numeric:normal;font-variant-alternates:normal;font-feature-settings:normal;text-indent:0;text-decoration:none;text-decoration-line:none;text-decoration-style:solid;text-decoration-color:#000000;text-transform:none;white-space:normal;shape-padding:0;isolation:auto;mix-blend-mode:normal;solid-color:#000000;fill:#b3b3b3;color-rendering:auto;image-rendering:auto;shape-rendering:auto"
       d="m 61.35,17.75 v 1.0351 H 46.564 v 0.52917 H 61.35 v 1.0361 c 0,0 1.2245,-0.50554 2.4123,-1.3002 -1.1878,-0.79462 -2.4123,-1.3002 -2.4123,-1.3002 z"
       inkscape:connector-curvature="0" />
    <path
       id="path4742"
       style="color:#000000;font-variant-ligatures:normal;font-variant-position:normal;font-variant-caps:normal;font-variant-numeric:normal;font-variant-alternates:normal;font-feature-settings:normal;text-indent:0;text-decoration:none;text-decoration-line:none;text-decoration-style:solid;text-decoration-color:#000000;text-transform:none;white-space:normal;shape-padding:0;isolation:auto;mix-blend-mode:normal;solid-color:#000000;fill:#b3b3b3;color-rendering:auto;image-rendering:auto;shape-rendering:auto"
       d="m 123.66,17.75 v 1.0351 h -15.05 v 0.52917 h 15.05 v 1.0361 c 0,0 1.2245,-0.50554 2.4123,-1.3002 -1.1878,-0.79462 -2.4123,-1.3002 -2.4123,-1.3002 z"
       inkscape:connector-curvature="0" />
  </g>
</svg>
