<?xml version="1.0" encoding="UTF-8" standalone="no"?>
<!-- Created with Inkscape (http://www.inkscape.org/) -->

<svg
   xmlns:dc="http://purl.org/dc/elements/1.1/"
   xmlns:cc="http://creativecommons.org/ns#"
   xmlns:rdf="http://www.w3.org/1999/02/22-rdf-syntax-ns#"
   xmlns:svg="http://www.w3.org/2000/svg"
   xmlns="http://www.w3.org/2000/svg"
   xmlns:sodipodi="http://sodipodi.sourceforge.net/DTD/sodipodi-0.dtd"
   xmlns:inkscape="http://www.inkscape.org/namespaces/inkscape"
   width="35.106941mm"
   height="24.804882mm"
   viewBox="0 0 35.106941 24.804882"
   version="1.1"
   id="svg8"
   inkscape:version="0.92.5 (2060ec1f9f, 2020-04-08)">
  <defs
     id="defs2">
    <style
       id="style1097">.cls-1{fill:none;}.cls-2{clip-path:url(#clip-path);}.cls-3{clip-path:url(#clip-path-2);}.cls-4{fill:#666;}.cls-5{fill:#e95420;}.cls-6{fill:#999;}.cls-7{clip-path:url(#clip-path-3);}.cls-8{clip-path:url(#clip-path-4);}.cls-9{fill:#326de6;}.cls-10{fill:#fff;}.cls-11{clip-path:url(#clip-path-5);}</style>
    <clipPath
       id="clip-path">
      <path
         id="path1099"
         d="m 449.42,148.91 a 7.17,7.17 0 0 0 0.45,0.63 l 28.88,36 a 8,8 0 0 0 6.23,3 h 46.31 a 8,8 0 0 0 6.24,-3 l 28.86,-36 a 7.88,7.88 0 0 0 1.54,-6.71 L 557.62,97.89 a 8,8 0 0 0 -4.31,-5.38 l -41.72,-20 a 8,8 0 0 0 -6.93,0 L 463,92.52 a 8,8 0 0 0 -4.32,5.38 l -10.3,44.93 a 7.89,7.89 0 0 0 1.09,6.09 z"
         class="cls-1"
         inkscape:connector-curvature="0"
         style="fill:none" />
    </clipPath>
    <clipPath
       id="clip-path-2">
      <path
         id="path1102"
         d="m 509.08,143.87 a 2.22,2.22 0 0 1 1,0.95 h 0.05 l 6.36,11.47 a 24.49,24.49 0 0 1 -2.54,0.71 26,26 0 0 1 -14.11,-0.74 l 6.34,-11.44 a 2.24,2.24 0 0 1 2.91,-0.95 z m 1,0.94 h -0.05 a 2.15,2.15 0 0 0 -1,-0.94 2.21,2.21 0 0 0 -2.9,0.94 l 1,-1.74 1,0.47 1,-0.49 z m -10.87,-4.73 a 2.17,2.17 0 0 1 -0.13,1.36 v 0 l -5,12.05 a 26,26 0 0 1 -10.41,-13 l 12.92,-2.18 h 0.45 a 2.22,2.22 0 0 1 2.21,1.77 z m 20.28,-1.73 13,2.17 a 25.3,25.3 0 0 1 -2.45,5 25.71,25.71 0 0 1 -8,8 l -5,-12.17 a 2.23,2.23 0 0 1 1.09,-2.87 2.12,2.12 0 0 1 1,-0.22 1.87,1.87 0 0 1 0.4,0.09 z m -20.67,0.76 1.07,0.51 -0.76,1.86 v 0 a 2.17,2.17 0 0 0 0.12,-1.36 2.2,2.2 0 0 0 -2.55,-1.68 v 0 l 1.94,-0.33 z m 20.69,-0.79 v 0 a 2.2,2.2 0 0 0 -2.43,3 v 0 l -0.75,-1.79 1,-0.5 0.25,-1.11 z m -9.42,-10.68 2.51,3.12 -0.9,3.89 -3.62,1.73 -3.62,-1.73 -0.9,-3.89 2.51,-3.13 z m -12.83,0.63 -0.72,0.89 0.26,1.13 -1.89,0.55 v 0 a 2.2,2.2 0 0 0 0.86,-3.79 V 127 Z M 520.41,127 a 2.17,2.17 0 0 0 -0.7,1.17 2.19,2.19 0 0 0 1.57,2.61 v 0.05 l -1.87,-0.54 0.25,-1.07 -0.74,-0.92 1.47,-1.32 z m -16.27,-5.76 H 503 l -0.7,0.86 -1.61,-1.14 v 0 a 2.16,2.16 0 0 0 1.3,0.43 2.21,2.21 0 0 0 2.2,-2.11 h 0.05 z m 7.88,-2 a 2.21,2.21 0 0 0 3.51,1.68 v 0 l -1.6,1.08 -0.67,-0.84 h -1.13 l -0.12,-2 z m 21.39,6.88 a 26.19,26.19 0 0 1 0.53,8.36 l -12.65,-3.64 v -0.05 a 2.2,2.2 0 0 1 -1.57,-2.61 2.23,2.23 0 0 1 0.7,-1.17 l 9.76,-8.74 a 26,26 0 0 1 3.23,7.79 z m -37.58,0.9 V 127 a 2.19,2.19 0 0 1 -0.86,3.77 l -12.61,3.68 A 25.71,25.71 0 0 1 486,118.21 Z M 521.9,109.9 a 25.85,25.85 0 0 1 4.34,3.42 l -10.67,7.55 v 0 a 2.21,2.21 0 0 1 -3.51,-1.68 l -0.75,-13 a 26,26 0 0 1 10.59,3.71 z m -17.65,9.29 h -0.05 a 2.21,2.21 0 0 1 -3.5,1.69 l -10.78,-7.59 a 26,26 0 0 1 12.4,-6.75 c 0.89,-0.2 1.78,-0.35 2.67,-0.46 z m 1.38,-29.72 c 0,0.27 0,0.55 0,0.75 a 21.42,21.42 0 0 0 0.35,2.37 23.24,23.24 0 0 1 0.28,4.53 2,2 0 0 1 -0.82,1.25 l -0.06,1.1 a 31.86,31.86 0 0 0 -4.52,0.69 32.42,32.42 0 0 0 -16.37,9.31 l -0.86,-0.61 a 2.18,2.18 0 0 1 -1.52,-0.16 23.61,23.61 0 0 1 -3.37,-3 20.67,20.67 0 0 0 -1.65,-1.75 c -0.16,-0.14 -0.41,-0.33 -0.59,-0.47 a 2.51,2.51 0 1 0 -3.12,3.91 c 0.22,0.17 0.43,0.35 0.59,0.46 a 20.32,20.32 0 0 0 2.03,1.15 23.57,23.57 0 0 1 3.73,2.6 2,2 0 0 1 0.47,1.42 l 0.82,0.73 c -0.16,0.23 -0.32,0.47 -0.47,0.72 A 32.27,32.27 0 0 0 476,136.31 l -1,0.3 c -0.27,0.4 -0.44,0.83 -1.08,1.08 a 24.41,24.41 0 0 1 -4.49,0.74 20.36,20.36 0 0 0 -2.4,0.19 l -0.69,0.16 a 2.51,2.51 0 1 0 1.08,4.88 l 0.73,-0.17 a 19.84,19.84 0 0 0 2.25,-0.86 23.94,23.94 0 0 1 4.36,-1.28 2,2 0 0 1 1.4,0.52 l 1.13,-0.2 a 32.6,32.6 0 0 0 13.68,17.54 q 0.38,0.24 0.75,0.45 l -0.45,1.07 a 2.17,2.17 0 0 1 0.18,1.52 23.73,23.73 0 0 1 -2.22,4 19.72,19.72 0 0 0 -1.34,2 c -0.1,0.18 -0.23,0.47 -0.33,0.67 A 2.51,2.51 0 1 0 492,171 l 0.33,-0.67 a 23,23 0 0 0 0.72,-2.29 23.51,23.51 0 0 1 1.72,-4.2 2,2 0 0 1 1.28,-0.77 l 0.58,-1.05 a 32.38,32.38 0 0 0 23.1,0 l 0.52,0.93 a 2.12,2.12 0 0 1 1.29,0.81 22.79,22.79 0 0 1 1.72,4.2 20,20 0 0 0 0.73,2.28 c 0.08,0.19 0.21,0.45 0.31,0.64 a 2.67,2.67 0 0 0 3.46,1.42 2.64,2.64 0 0 0 1.06,-3.55 c -0.12,-0.25 -0.23,-0.5 -0.32,-0.67 a 18.65,18.65 0 0 0 -1.34,-2 23,23 0 0 1 -2.22,-4 1.93,1.93 0 0 1 0.19,-1.48 l -0.42,-1 a 32.21,32.21 0 0 0 14.44,-18.09 l 1,0.17 a 2.24,2.24 0 0 1 1.44,-0.51 24.25,24.25 0 0 1 4.37,1.28 22.67,22.67 0 0 0 2.24,0.86 c 0.2,0.06 0.48,0.11 0.7,0.16 a 2.68,2.68 0 0 0 3.27,-1.82 2.65,2.65 0 0 0 -2.12,-3 l -0.73,-0.17 a 22.53,22.53 0 0 0 -2.4,-0.19 23.59,23.59 0 0 1 -4.49,-0.74 2,2 0 0 1 -1,-1.07 l -1,-0.3 a 32.33,32.33 0 0 0 -5.21,-22.47 L 536,113 a 2.16,2.16 0 0 1 0.5,-1.44 23,23 0 0 1 3.72,-2.6 20.32,20.32 0 0 0 2.07,-1.22 c 0.18,-0.12 0.42,-0.33 0.59,-0.46 a 2.51,2.51 0 1 0 -3.12,-3.9 c -0.22,0.16 -0.44,0.33 -0.59,0.46 a 22.31,22.31 0 0 0 -1.65,1.75 23,23 0 0 1 -3.37,3 2,2 0 0 1 -1.49,0.14 l -1,0.69 a 32.65,32.65 0 0 0 -20.78,-10 l -0.06,-1.07 a 2.19,2.19 0 0 1 -0.82,-1.29 23.24,23.24 0 0 1 0.28,-4.53 21.42,21.42 0 0 0 0.35,-2.37 c 0,-0.21 0,-0.53 0,-0.75 a 2.51,2.51 0 1 0 -5,0 z"
         class="cls-1"
         inkscape:connector-curvature="0"
         style="fill:none" />
    </clipPath>
    <clipPath
       id="clip-path-3">
      <path
         id="path1105"
         d="m 161.7,44.83 c 0.06,0.1 0.13,0.18 0.19,0.27 L 174,60.21 a 3.33,3.33 0 0 0 2.61,1.25 H 196 a 3.35,3.35 0 0 0 2.62,-1.25 l 12.11,-15.12 a 3.31,3.31 0 0 0 0.64,-2.81 l -4.32,-18.85 a 3.35,3.35 0 0 0 -1.81,-2.26 l -17.5,-8.38 a 3.35,3.35 0 0 0 -2.9,0 l -17.5,8.39 a 3.31,3.31 0 0 0 -1.81,2.26 l -4.32,18.84 a 3.31,3.31 0 0 0 0.45,2.55 z"
         class="cls-1"
         inkscape:connector-curvature="0"
         style="fill:none" />
    </clipPath>
    <clipPath
       id="clip-path-4">
      <rect
         id="rect1108"
         height="304.10999"
         width="303.14999"
         y="-30.629999"
         x="-21.299999"
         class="cls-1"
         style="fill:none" />
    </clipPath>
    <clipPath
       id="clip-path-5">
      <path
         id="path1111"
         d="m 186.73,42.72 a 1,1 0 0 1 0.41,0.39 v 0 l 2.67,4.81 c -0.34,0.11 -0.7,0.21 -1.06,0.3 a 10.92,10.92 0 0 1 -5.92,-0.32 l 2.66,-4.79 a 0.93,0.93 0 0 1 0.78,-0.49 0.85,0.85 0 0 1 0.46,0.1 z m 0.43,0.39 v 0 a 1,1 0 0 0 -0.41,-0.39 0.93,0.93 0 0 0 -1.22,0.39 l 0.4,-0.73 0.42,0.2 0.42,-0.21 z m -4.56,-2 a 0.86,0.86 0 0 1 0,0.57 v 0 l -2.1,5.05 a 10.86,10.86 0 0 1 -4.36,-5.44 l 5.42,-0.91 h 0.19 a 0.93,0.93 0 0 1 0.85,0.75 z m 8.51,-0.73 5.47,0.91 a 10.64,10.64 0 0 1 -1,2.12 10.82,10.82 0 0 1 -3.34,3.36 l -2.12,-5.1 a 1,1 0 0 1 0.45,-1.21 1.11,1.11 0 0 1 0.43,-0.09 z m -8.67,0.32 0.45,0.22 -0.32,0.78 v 0 a 1,1 0 0 0 0.05,-0.57 0.94,0.94 0 0 0 -1.07,-0.71 v 0 l 0.81,-0.14 z m 8.68,-0.33 v 0 a 1,1 0 0 0 -0.57,0.08 0.93,0.93 0 0 0 -0.45,1.2 v 0 l -0.32,-0.75 0.44,-0.21 0.11,-0.46 z m -4,-4.48 1.05,1.31 -0.37,1.63 -1.52,0.73 -1.52,-0.73 -0.38,-1.63 1,-1.31 z m -5.38,0.26 -0.31,0.38 0.11,0.47 -0.79,0.23 v 0 a 0.89,0.89 0 0 0 0.47,-0.32 0.92,0.92 0 0 0 -0.11,-1.27 v 0 z m 9.69,-0.55 a 0.91,0.91 0 0 0 -0.29,0.49 0.93,0.93 0 0 0 0.65,1.1 v 0 l -0.79,-0.23 0.11,-0.45 -0.31,-0.39 0.62,-0.55 z m -6.82,-2.42 h -0.49 l -0.29,0.37 -0.68,-0.48 v 0 a 0.87,0.87 0 0 0 0.55,0.18 0.92,0.92 0 0 0 0.92,-0.88 v 0 z m 3.3,-0.84 a 1,1 0 0 0 0.2,0.54 0.94,0.94 0 0 0 1.27,0.17 v 0 l -0.69,0.49 -0.28,-0.36 H 188 v -0.84 z m 9,2.89 a 10.6,10.6 0 0 1 0.22,3.5 l -5.3,-1.52 v 0 a 0.92,0.92 0 0 1 -0.66,-1.1 0.91,0.91 0 0 1 0.29,-0.49 l 4.1,-3.66 a 10.82,10.82 0 0 1 1.37,3.29 z m -15.76,0.38 v 0 a 0.91,0.91 0 0 1 0.12,1.27 0.89,0.89 0 0 1 -0.48,0.31 l -5.29,1.54 A 10.8,10.8 0 0 1 177.05,32 Z m 10.93,-7.16 a 10.7,10.7 0 0 1 1.83,1.43 l -4.48,3.17 v 0 a 0.93,0.93 0 0 1 -1.27,-0.17 0.94,0.94 0 0 1 -0.2,-0.53 l -0.31,-5.48 a 10.88,10.88 0 0 1 4.45,1.6 z m -7.4,3.89 v 0 a 0.92,0.92 0 0 1 -0.92,0.88 1,1 0 0 1 -0.55,-0.18 l -4.52,-3.18 a 10.94,10.94 0 0 1 5.2,-2.83 9,9 0 0 1 1.12,-0.19 z m 0.58,-12.46 v 0.31 a 7.77,7.77 0 0 0 0.14,1 9.34,9.34 0 0 1 0.12,1.9 0.84,0.84 0 0 1 -0.34,0.52 v 0.46 a 15.14,15.14 0 0 0 -1.89,0.29 13.6,13.6 0 0 0 -6.87,3.91 l -0.36,-0.26 a 0.87,0.87 0 0 1 -0.64,-0.07 9.27,9.27 0 0 1 -1.42,-1.25 9.36,9.36 0 0 0 -0.69,-0.73 l -0.25,-0.2 a 1.05,1.05 0 1 0 -1.31,1.64 2.77,2.77 0 0 0 0.25,0.19 7.86,7.86 0 0 0 0.87,0.51 9.56,9.56 0 0 1 1.56,1.1 0.84,0.84 0 0 1 0.2,0.59 l 0.34,0.3 -0.2,0.31 a 13.63,13.63 0 0 0 -1.94,9.15 l -0.44,0.12 a 0.91,0.91 0 0 1 -0.45,0.46 10.08,10.08 0 0 1 -1.88,0.31 7.21,7.21 0 0 0 -1,0.08 l -0.29,0.06 a 1.06,1.06 0 1 0 0.46,2.05 l 0.3,-0.07 c 0.36,-0.1 0.62,-0.24 0.94,-0.36 a 9.8,9.8 0 0 1 1.83,-0.54 0.82,0.82 0 0 1 0.59,0.22 l 0.48,-0.08 a 13.67,13.67 0 0 0 5.73,7.35 l 0.32,0.19 -0.19,0.45 a 1,1 0 0 1 0.08,0.64 10.42,10.42 0 0 1 -0.94,1.66 7.51,7.51 0 0 0 -0.56,0.83 l -0.13,0.29 a 1.09,1.09 0 0 0 0.44,1.48 1.12,1.12 0 0 0 1.45,-0.58 c 0.05,-0.1 0.1,-0.2 0.13,-0.28 a 9.7,9.7 0 0 0 0.31,-1 9.86,9.86 0 0 1 0.72,-1.76 0.8,0.8 0 0 1 0.53,-0.32 l 0.25,-0.44 a 13.69,13.69 0 0 0 7.89,0.56 14.31,14.31 0 0 0 1.8,-0.54 l 0.21,0.38 a 1,1 0 0 1 0.55,0.34 10.66,10.66 0 0 1 0.72,1.76 7.54,7.54 0 0 0 0.3,1 l 0.13,0.27 a 1.13,1.13 0 0 0 1.46,0.6 1.12,1.12 0 0 0 0.44,-1.49 l -0.13,-0.28 a 8.81,8.81 0 0 0 -0.57,-0.84 10.65,10.65 0 0 1 -0.93,-1.66 0.89,0.89 0 0 1 0.08,-0.62 l -0.17,-0.42 a 13.68,13.68 0 0 0 4.61,-4.47 13.35,13.35 0 0 0 1.44,-3.12 l 0.43,0.07 a 0.9,0.9 0 0 1 0.61,-0.21 9.7,9.7 0 0 1 1.83,0.53 8,8 0 0 0 0.94,0.37 l 0.29,0.06 a 1.05,1.05 0 1 0 0.48,-2 l -0.3,-0.07 a 8.94,8.94 0 0 0 -1,-0.08 10.08,10.08 0 0 1 -1.88,-0.31 0.83,0.83 0 0 1 -0.44,-0.45 l -0.44,-0.12 a 13.58,13.58 0 0 0 -2.19,-9.43 l 0.36,-0.32 a 0.92,0.92 0 0 1 0.21,-0.6 10.14,10.14 0 0 1 1.57,-1.1 8.9,8.9 0 0 0 0.87,-0.51 l 0.24,-0.19 a 1.05,1.05 0 1 0 -1.31,-1.64 2.81,2.81 0 0 0 -0.24,0.2 6.67,6.67 0 0 0 -0.69,0.73 9.8,9.8 0 0 1 -1.42,1.27 0.77,0.77 0 0 1 -0.62,0.06 l -0.42,0.29 a 13.66,13.66 0 0 0 -8.71,-4.19 v -0.45 a 1,1 0 0 1 -0.34,-0.54 9.34,9.34 0 0 1 0.12,-1.9 7.77,7.77 0 0 0 0.14,-1 V 19.9 a 1.05,1.05 0 1 0 -2.1,0 z"
         class="cls-1"
         inkscape:connector-curvature="0"
         style="fill:none" />
    </clipPath>
  </defs>
  <sodipodi:namedview
     id="base"
     pagecolor="#ffffff"
     bordercolor="#666666"
     borderopacity="1.0"
     inkscape:pageopacity="0.0"
     inkscape:pageshadow="2"
     inkscape:zoom="1.7350728"
     inkscape:cx="231.73937"
     inkscape:cy="-68.960512"
     inkscape:document-units="mm"
     inkscape:current-layer="layer1"
     showgrid="false"
     fit-margin-top="0"
     fit-margin-left="0"
     fit-margin-right="0"
     fit-margin-bottom="0"
     inkscape:window-width="1848"
     inkscape:window-height="1016"
     inkscape:window-x="72"
     inkscape:window-y="27"
     inkscape:window-maximized="1" />
  <metadata
     id="metadata5">
    <rdf:RDF>
      <cc:Work
         rdf:about="">
        <dc:format>image/svg+xml</dc:format>
        <dc:type
           rdf:resource="http://purl.org/dc/dcmitype/StillImage" />
        <dc:title></dc:title>
      </cc:Work>
    </rdf:RDF>
  </metadata>
  <g
     inkscape:label="Layer 1"
     inkscape:groupmode="layer"
     id="layer1"
     transform="translate(-48.013303,-36.979085)">
    <g
       data-name="Layer 1"
       id="Layer_1"
       transform="matrix(0.1241497,0,0,0.1241497,47.56253,36.96643)">
      <path
         id="path1118"
         d="m 73.38,91.14 a 4.7,4.7 0 1 1 4.7,-4.7 4.71,4.71 0 0 1 -4.7,4.7 z m 0,-7.4 a 2.7,2.7 0 1 0 2.7,2.7 2.7,2.7 0 0 0 -2.7,-2.7 z"
         class="cls-4"
         inkscape:connector-curvature="0"
         style="fill:#666666" />
      <path
         id="path1120"
         d="m 73.36,83.74 a 1,1 0 0 1 -1,-1 v -6.1 a 1,1 0 0 1 2,0 v 6.1 a 1,1 0 0 1 -1,1 z"
         class="cls-4"
         inkscape:connector-curvature="0"
         style="fill:#666666" />
      <path
         id="path1122"
         d="m 236.83,110.84 a 1,1 0 0 1 -1,-1 v -7.71 a 1,1 0 0 1 2,0 v 7.71 a 1,1 0 0 1 -1,1 z"
         class="cls-4"
         inkscape:connector-curvature="0"
         style="fill:#666666" />
      <path
         id="path1124"
         d="m 236.83,92.65 a 1,1 0 0 1 -1,-1 V 75.4 a 1,1 0 0 1 2,0 v 16.25 a 1,1 0 0 1 -1,1 z"
         class="cls-4"
         inkscape:connector-curvature="0"
         style="fill:#666666" />
      <path
         id="path1126"
         d="m 236.83,102 a 5.31,5.31 0 1 1 5.31,-5.31 5.32,5.32 0 0 1 -5.31,5.31 z m 0,-8.62 a 3.31,3.31 0 1 0 3.31,3.31 3.32,3.32 0 0 0 -3.31,-3.29 z"
         class="cls-5"
         inkscape:connector-curvature="0"
         style="fill:#e95420" />
      <path
         id="path1128"
         d="m 223.94,110.84 a 1,1 0 0 1 -1,-1 V 92.41 a 1,1 0 0 1 2,0 v 17.43 a 1,1 0 0 1 -1,1 z"
         class="cls-4"
         inkscape:connector-curvature="0"
         style="fill:#666666" />
      <path
         id="path1130"
         d="m 223.94,84.73 a 1,1 0 0 1 -1,-1 V 75.4 a 1,1 0 0 1 2,0 v 8.33 a 1,1 0 0 1 -1,1 z"
         class="cls-4"
         inkscape:connector-curvature="0"
         style="fill:#666666" />
      <path
         id="path1132"
         d="m 223.94,93.4 a 5.32,5.32 0 1 1 5.31,-5.32 5.33,5.33 0 0 1 -5.31,5.32 z m 0,-8.63 a 3.32,3.32 0 1 0 3.31,3.31 3.32,3.32 0 0 0 -3.31,-3.31 z"
         class="cls-5"
         inkscape:connector-curvature="0"
         style="fill:#e95420" />
      <path
         id="path1134"
         d="m 249.72,110.84 a 1,1 0 0 1 -1,-1 V 92.41 a 1,1 0 0 1 2,0 v 17.43 a 1,1 0 0 1 -1,1 z"
         class="cls-4"
         inkscape:connector-curvature="0"
         style="fill:#666666" />
      <path
         id="path1136"
         d="m 249.72,84.62 a 1,1 0 0 1 -1,-1 V 75.4 a 1,1 0 0 1 2,0 v 8.22 a 1,1 0 0 1 -1,1 z"
         class="cls-4"
         inkscape:connector-curvature="0"
         style="fill:#666666" />
      <path
         id="path1138"
         d="m 249.72,93.4 a 5.32,5.32 0 1 1 5.28,-5.32 5.33,5.33 0 0 1 -5.28,5.32 z m 0,-8.63 a 3.32,3.32 0 1 0 3.28,3.31 3.32,3.32 0 0 0 -3.28,-3.31 z"
         class="cls-5"
         inkscape:connector-curvature="0"
         style="fill:#e95420" />
      <path
         id="path1140"
         d="m 122.56,199.9 a 1.42,1.42 0 0 1 -0.57,-0.12 1.5,1.5 0 0 1 -0.93,-1.38 v -59 a 1.5,1.5 0 0 1 0.44,-1.06 l 17.13,-17.12 h -34.27 v 57.54 a 1.5,1.5 0 0 1 -1.5,1.5 H 63.53 a 31,31 0 1 1 2.75,-61.92 26.8,26.8 0 0 1 40.09,-21.87 36,36 0 0 1 66.88,18.35 c 0,1.13 -0.05,2.28 -0.16,3.43 a 31.007239,31.007239 0 0 1 -1.34,62 h -28.87 l -19.26,19.24 a 1.53,1.53 0 0 1 -1.06,0.41 z m 1.5,-59.92 v 54.8 l 17.14,-17.12 a 1.46,1.46 0 0 1 1.06,-0.44 h 29.49 a 28,28 0 1 0 0,-56 h -0.33 a 1.59,1.59 0 0 1 -1.15,-0.51 1.51,1.51 0 0 1 -0.36,-1.2 33,33 0 0 0 -61.67,-20.25 1.5,1.5 0 0 1 -1,0.74 1.44,1.44 0 0 1 -1.19,-0.2 23.81,23.81 0 0 0 -36.85,19.91 V 120 a 1.45,1.45 0 0 1 -0.51,1.14 1.51,1.51 0 0 1 -1.2,0.36 28.9,28.9 0 0 0 -4,-0.29 28,28 0 0 0 0,56 h 37.83 v -57.53 a 1.5,1.5 0 0 1 1.5,-1.5 h 39.4 a 1.5,1.5 0 0 1 1.06,2.56 z"
         class="cls-6"
         inkscape:connector-curvature="0"
         style="fill:#999999" />
      <path
         id="path1142"
         d="M 95.54,43.2 H 51.18 a 3.46,3.46 0 0 1 -3.46,-3.46 v -7.4 a 3.47,3.47 0 0 1 3.46,-3.46 H 95.54 A 3.47,3.47 0 0 1 99,32.34 v 7.4 A 3.46,3.46 0 0 1 95.54,43.2 Z M 51.18,30.88 a 1.47,1.47 0 0 0 -1.46,1.46 v 7.4 a 1.46,1.46 0 0 0 1.46,1.46 H 95.54 A 1.46,1.46 0 0 0 97,39.74 v -7.4 a 1.46,1.46 0 0 0 -1.46,-1.46 z"
         class="cls-4"
         inkscape:connector-curvature="0"
         style="fill:#666666" />
      <path
         id="path1144"
         d="M 56.17,39.52 A 3.48,3.48 0 1 1 59.65,36 3.49,3.49 0 0 1 56.17,39.52 Z m 0,-5 A 1.48,1.48 0 1 0 57.65,36 1.49,1.49 0 0 0 56.17,34.56 Z"
         class="cls-6"
         inkscape:connector-curvature="0"
         style="fill:#999999" />
      <path
         id="path1146"
         d="M 66,39.52 A 3.48,3.48 0 1 1 69.49,36 3.48,3.48 0 0 1 66,39.52 Z m 0,-5 A 1.48,1.48 0 1 0 67.49,36 1.49,1.49 0 0 0 66,34.56 Z"
         class="cls-5"
         inkscape:connector-curvature="0"
         style="fill:#e95420" />
      <path
         id="path1148"
         d="M 95.54,60.4 H 51.18 a 3.46,3.46 0 0 1 -3.46,-3.46 v -7.4 a 3.46,3.46 0 0 1 3.46,-3.46 H 95.54 A 3.46,3.46 0 0 1 99,49.54 v 7.4 A 3.46,3.46 0 0 1 95.54,60.4 Z M 51.18,48.08 a 1.47,1.47 0 0 0 -1.46,1.46 v 7.4 a 1.46,1.46 0 0 0 1.46,1.46 H 95.54 A 1.46,1.46 0 0 0 97,56.94 v -7.4 a 1.46,1.46 0 0 0 -1.46,-1.46 z"
         class="cls-4"
         inkscape:connector-curvature="0"
         style="fill:#666666" />
      <path
         id="path1150"
         d="m 56.17,56.72 a 3.48,3.48 0 1 1 3.48,-3.48 3.49,3.49 0 0 1 -3.48,3.48 z m 0,-5 a 1.48,1.48 0 1 0 1.48,1.48 1.49,1.49 0 0 0 -1.48,-1.44 z"
         class="cls-6"
         inkscape:connector-curvature="0"
         style="fill:#999999" />
      <path
         id="path1152"
         d="M 66,56.72 A 3.48,3.48 0 1 1 69.49,53.24 3.48,3.48 0 0 1 66,56.72 Z m 0,-5 A 1.48,1.48 0 1 0 67.49,53.2 1.48,1.48 0 0 0 66,51.76 Z"
         class="cls-5"
         inkscape:connector-curvature="0"
         style="fill:#e95420" />
      <path
         id="path1154"
         d="M 95.54,60.4 H 51.18 a 3.46,3.46 0 0 1 -3.46,-3.46 v -7.4 a 3.46,3.46 0 0 1 3.46,-3.46 H 95.54 A 3.46,3.46 0 0 1 99,49.54 v 7.4 A 3.46,3.46 0 0 1 95.54,60.4 Z M 51.18,48.08 a 1.47,1.47 0 0 0 -1.46,1.46 v 7.4 a 1.46,1.46 0 0 0 1.46,1.46 H 95.54 A 1.46,1.46 0 0 0 97,56.94 v -7.4 a 1.46,1.46 0 0 0 -1.46,-1.46 z"
         class="cls-4"
         inkscape:connector-curvature="0"
         style="fill:#666666" />
      <path
         id="path1156"
         d="m 56.17,56.72 a 3.48,3.48 0 1 1 3.48,-3.48 3.49,3.49 0 0 1 -3.48,3.48 z m 0,-5 a 1.48,1.48 0 1 0 1.48,1.48 1.49,1.49 0 0 0 -1.48,-1.44 z"
         class="cls-6"
         inkscape:connector-curvature="0"
         style="fill:#999999" />
      <path
         id="path1158"
         d="M 66,56.72 A 3.48,3.48 0 1 1 69.49,53.24 3.48,3.48 0 0 1 66,56.72 Z m 0,-5 A 1.48,1.48 0 1 0 67.49,53.2 1.48,1.48 0 0 0 66,51.76 Z"
         class="cls-5"
         inkscape:connector-curvature="0"
         style="fill:#e95420" />
      <path
         id="path1160"
         d="M 95.54,77.64 H 51.18 a 3.46,3.46 0 0 1 -3.46,-3.46 v -7.4 a 3.46,3.46 0 0 1 3.46,-3.46 H 95.54 A 3.46,3.46 0 0 1 99,66.78 v 7.4 a 3.46,3.46 0 0 1 -3.46,3.46 z M 51.18,65.32 a 1.47,1.47 0 0 0 -1.46,1.46 v 7.4 a 1.46,1.46 0 0 0 1.46,1.46 H 95.54 A 1.46,1.46 0 0 0 97,74.18 v -7.4 a 1.46,1.46 0 0 0 -1.46,-1.46 z"
         class="cls-4"
         inkscape:connector-curvature="0"
         style="fill:#666666" />
      <path
         id="path1162"
         d="M 56.17,74 A 3.48,3.48 0 1 1 59.65,70.52 3.49,3.49 0 0 1 56.17,74 Z m 0,-5 A 1.48,1.48 0 1 0 57.65,70.48 1.49,1.49 0 0 0 56.17,69 Z"
         class="cls-6"
         inkscape:connector-curvature="0"
         style="fill:#999999" />
      <path
         id="path1164"
         d="M 66,74 A 3.48,3.48 0 1 1 69.49,70.52 3.48,3.48 0 0 1 66,74 Z m 0,-5 A 1.48,1.48 0 1 0 67.49,70.48 1.48,1.48 0 0 0 66,69 Z"
         class="cls-5"
         inkscape:connector-curvature="0"
         style="fill:#e95420" />
      <g
         id="g1170"
         clip-path="url(#clip-path-3)"
         class="cls-7">
        <g
           id="g1168"
           clip-path="url(#clip-path-4)"
           class="cls-8">
          <rect
             id="rect1166"
             height="50.91"
             width="52.240002"
             y="11.51"
             x="160.21001"
             class="cls-9"
             style="fill:#326de6" />
        </g>
      </g>
      <path
         id="path1172"
         d="m 176.62,61.88 a 3.74,3.74 0 0 1 -2.94,-1.41 L 161.57,45.36 a 2.32,2.32 0 0 1 -0.22,-0.3 3.72,3.72 0 0 1 -0.51,-2.87 l 4.32,-18.85 a 3.76,3.76 0 0 1 2,-2.54 l 17.49,-8.39 a 3.82,3.82 0 0 1 3.27,0 l 17.5,8.39 a 3.72,3.72 0 0 1 2,2.54 l 4.32,18.84 a 3.72,3.72 0 0 1 -0.72,3.17 L 199,60.47 a 3.78,3.78 0 0 1 -3,1.41 z m 9.71,-49 a 3,3 0 0 0 -1.27,0.29 l -17.5,8.39 a 2.86,2.86 0 0 0 -1.58,2 l -4.32,18.85 a 2.89,2.89 0 0 0 0.39,2.22 v 0 a 1.77,1.77 0 0 0 0.16,0.22 L 174.33,60 a 2.93,2.93 0 0 0 2.29,1 H 196 a 2.91,2.91 0 0 0 2.29,-1.1 L 210.4,44.79 a 2.91,2.91 0 0 0 0.57,-2.46 l -4.33,-18.84 a 2.9,2.9 0 0 0 -1.58,-2 l -17.5,-8.38 a 3,3 0 0 0 -1.23,-0.23 z"
         class="cls-10"
         inkscape:connector-curvature="0"
         style="fill:#ffffff" />
      <g
         id="g1178"
         clip-path="url(#clip-path-5)"
         class="cls-11">
        <g
           id="g1176"
           clip-path="url(#clip-path-4)"
           class="cls-8">
          <rect
             id="rect1174"
             height="37.939999"
             width="38.889999"
             y="17.799999"
             x="166.88"
             class="cls-10"
             style="fill:#ffffff" />
        </g>
      </g>
      <path
         id="path1180"
         d="m 77.15,101.5 c -4.66,0 -19.35,-0.13 -19.5,-0.13 a 1.5,1.5 0 0 1 0,-3 v 0 c 0.14,0 13.82,0.12 18.95,0.13 a 26.78,26.78 0 0 1 29.74,-2.07 35.94,35.94 0 0 1 30.96,-17.61 35.39,35.39 0 0 1 6.87,0.67 27.94,27.94 0 0 0 1.48,-8.31 A 26.17,26.17 0 0 1 126,45.88 c 0,-0.69 0,-1.4 0.09,-2.12 a 27.9,27.9 0 0 0 -8.43,-1.3 c -0.7,0 -1.45,0 -2.3,0.11 a 1.52,1.52 0 0 1 -1.54,-1 42.77,42.77 0 0 0 -82.86,9.36 1.49,1.49 0 0 1 -1.47,1.34 23.12,23.12 0 0 0 -5.71,45.46 l 6.54,0.13 a 1.5003,1.5003 0 1 1 -0.06,3 l -6.72,-0.14 a 2.09,2.09 0 0 1 -0.35,0 26.13,26.13 0 0 1 4.95,-51.37 45.77,45.77 0 0 1 88.12,-9.81 c 0.49,0 1,0 1.4,0 a 30.85,30.85 0 0 1 10.56,1.85 1.5,1.5 0 0 1 1,1.6 21.9,21.9 0 0 0 -0.2,3 23.17,23.17 0 0 0 18.46,22.64 1.51,1.51 0 0 1 1.17,1.37 v 0.18 c 0,0.11 0,0.23 0,0.34 a 30.92,30.92 0 0 1 -2.13,11.29 1.51,1.51 0 0 1 -1.74,0.92 32.91,32.91 0 0 0 -36.55,16.54 1.5,1.5 0 0 1 -1,0.74 1.44,1.44 0 0 1 -1.19,-0.2 23.8,23.8 0 0 0 -28,1.4 1.51,1.51 0 0 1 -0.89,0.29 z"
         class="cls-6"
         inkscape:connector-curvature="0"
         style="fill:#999999" />
      <path
         id="path1182"
         d="m 267.69,121.18 h -66.41 a 16.26,16.26 0 1 1 0,-32.52 16,16 0 0 1 3.44,0.38 31,31 0 0 1 61.36,-5.22 c 0.56,0 1.09,-0.08 1.61,-0.08 a 18.72,18.72 0 1 1 0,37.44 z m -32,-3 h 32 a 15.72,15.72 0 1 0 0,-31.44 16.32,16.32 0 0 0 -2.58,0.23 1.52,1.52 0 0 1 -1.13,-0.26 1.5,1.5 0 0 1 -0.6,-1 28,28 0 0 0 -55.68,4.43 c 0,0.2 0,0.39 0,0.59 V 91 a 1.51,1.51 0 0 1 -0.62,1.26 1.48,1.48 0 0 1 -1.38,0.2 13.25,13.25 0 1 0 -4.44,25.74 z"
         class="cls-6"
         inkscape:connector-curvature="0"
         style="fill:#999999" />
      <path
         id="path1184"
         d="m 213.72,72 h -61.64 a 26.1,26.1 0 0 1 0,-52.2 c 0.76,0 1.54,0 2.33,0.11 a 35.93,35.93 0 0 1 67.53,10.09 20.4,20.4 0 0 1 3.94,-0.39 21.16,21.16 0 0 1 17.81,32.6 1.48,1.48 0 0 1 -1.6,0.65 28.38,28.38 0 0 0 -6.38,-0.73 28.06,28.06 0 0 0 -20.87,9.34 1.52,1.52 0 0 1 -1.12,0.53 z M 152.08,22.8 a 23.1,23.1 0 0 0 0,46.2 h 61 a 31.06,31.06 0 0 1 22.65,-9.84 31.51,31.51 0 0 1 6,0.58 18.16,18.16 0 0 0 -15.82,-27.1 18.62,18.62 0 0 0 -4.8,0.66 1.49,1.49 0 0 1 -1.91,-1.3 32.93,32.93 0 0 0 -62.54,-9.89 1.49,1.49 0 0 1 -1.56,0.86 22.56,22.56 0 0 0 -3.02,-0.19 z"
         class="cls-6"
         inkscape:connector-curvature="0"
         style="fill:#999999" />
      <path
         id="path1186"
         d="m 47.51,117.25 h -7.29 a 1,1 0 0 1 -1,-1 v -3.06 a 14.06,14.06 0 0 1 -4.45,-2.57 l -2.66,1.53 a 1,1 0 0 1 -1.36,-0.37 l -3.65,-6.31 a 1,1 0 0 1 -0.1,-0.76 1,1 0 0 1 0.47,-0.61 l 2.65,-1.53 a 13.33,13.33 0 0 1 0,-5.14 L 27.47,95.9 A 1,1 0 0 1 27.1,94.53 l 3.65,-6.31 a 1,1 0 0 1 1.36,-0.37 l 2.66,1.53 a 14.06,14.06 0 0 1 4.45,-2.57 v -3.06 a 1,1 0 0 1 1,-1 h 7.29 a 1,1 0 0 1 1,1 v 3.06 A 14.06,14.06 0 0 1 53,89.38 l 2.66,-1.53 a 1,1 0 0 1 1.36,0.37 l 3.65,6.31 a 1,1 0 0 1 0.1,0.76 1,1 0 0 1 -0.47,0.61 l -2.65,1.53 a 13.33,13.33 0 0 1 0,5.14 l 2.65,1.53 a 1,1 0 0 1 0.47,0.61 1,1 0 0 1 -0.1,0.76 L 57,111.78 a 1,1 0 0 1 -1.36,0.37 L 53,110.62 a 14.06,14.06 0 0 1 -4.45,2.57 v 3.06 a 1,1 0 0 1 -1.04,1 z m -6.29,-2 h 5.29 v -2.79 a 1,1 0 0 1 0.72,-1 11.92,11.92 0 0 0 4.91,-2.84 1,1 0 0 1 1.19,-0.14 l 2.42,1.4 2.65,-4.58 -2.4,-1.36 A 1,1 0 0 1 55.52,102.84 11.82,11.82 0 0 0 55.88,100 11.68,11.68 0 0 0 55.52,97.17 1,1 0 0 1 56,96.06 l 2.42,-1.39 -2.65,-4.59 -2.42,1.4 a 1,1 0 0 1 -1.19,-0.14 11.92,11.92 0 0 0 -4.91,-2.84 1,1 0 0 1 -0.72,-1 v -2.75 h -5.31 v 2.79 a 1,1 0 0 1 -0.72,1 11.92,11.92 0 0 0 -4.91,2.84 1,1 0 0 1 -1.19,0.14 l -2.4,-1.44 -2.65,4.59 2.43,1.39 a 1,1 0 0 1 0.47,1.11 11.3,11.3 0 0 0 0,5.66 1,1 0 0 1 -0.47,1.11 l -2.43,1.4 2.65,4.58 2.42,-1.4 a 1,1 0 0 1 1.19,0.14 11.92,11.92 0 0 0 4.91,2.84 1,1 0 0 1 0.72,1 z"
         class="cls-5"
         inkscape:connector-curvature="0"
         style="fill:#e95420" />
      <path
         id="path1188"
         d="m 43.87,108.64 a 8.64,8.64 0 1 1 8.63,-8.64 8.65,8.65 0 0 1 -8.63,8.64 z m 0,-15.28 A 6.64,6.64 0 1 0 50.5,100 6.65,6.65 0 0 0 43.87,93.36 Z"
         class="cls-5"
         inkscape:connector-curvature="0"
         style="fill:#e95420" />
    </g>
  </g>
</svg>
