<?xml version="1.0" encoding="UTF-8" standalone="no"?>
<!-- Created with Inkscape (http://www.inkscape.org/) -->
<svg id="svg4992" xmlns:rdf="http://www.w3.org/1999/02/22-rdf-syntax-ns#" xmlns="http://www.w3.org/2000/svg" height="144" width="900" version="1.1" xmlns:cc="http://creativecommons.org/ns#" xmlns:dc="http://purl.org/dc/elements/1.1/" viewBox="0 0 238.12502 38.100017">
 <metadata id="metadata4989">
  <rdf:RDF>
   <cc:Work rdf:about="">
    <dc:format>image/svg+xml</dc:format>
    <dc:type rdf:resource="http://purl.org/dc/dcmitype/StillImage"/>
    <dc:title/>
   </cc:Work>
  </rdf:RDF>
 </metadata>
 <g id="layer1" transform="translate(653.25 -215.23)">
  <g id="g4758" transform="translate(-.26460 -53.975)">
   <g id="g4752" transform="matrix(.45208 0 0 .45209 -275.1 160.1)" stroke="#808080" stroke-linecap="round" stroke-width="1.1705" fill="none">
    <path id="path4746" style="color:#000000" d="m-361.56 283.3c-0.71998 2.829 0.10177 5.8281 2.1632 7.895 3.236 3.2358 8.4825 3.2356 11.718-0.00037 3.2356-3.2359 3.2357-8.482 0-11.718-2.0667-2.0612-5.0655-2.8829-7.8943-2.1632l2.7406 2.7406c1.7269 1.7269 2.6638 3.4122 0.0446 6.0314s-4.3045 1.6823-6.0314-0.0446z"/>
    <path id="path4748" style="color:#000000" d="m-351.5 293.35 13.68 13.68c1.6584 1.6584 3.3676 2.6192 5.9868 0s1.6584-4.3285 0-5.9868l-13.68-13.68c-0.36407 1.4459-1.1115 2.7667-2.1636 3.8233-1.0567 1.052-2.3777 1.7993-3.8236 2.1632z"/>
    <circle id="circle4750" style="color:#000000" transform="rotate(-45)" cy="-21.771" cx="-451.75" r="1.8521"/>
   </g>
   <path id="path4754" style="color-rendering:auto;text-decoration-color:#000000;color:#000000;font-variant-numeric:normal;shape-rendering:auto;solid-color:#000000;text-decoration-line:none;font-variant-position:normal;mix-blend-mode:normal;block-progression:tb;font-feature-settings:normal;shape-padding:0;font-variant-alternates:normal;text-indent:0;font-variant-caps:normal;image-rendering:auto;white-space:normal;text-decoration-style:solid;font-variant-ligatures:normal;isolation:auto;text-transform:none" d="m773.99 27.998c-5.0377 0.05783-8.6251-0.03023-11.25 1.418-1.313 0.7242-2.3105 1.8929-2.9024 3.4688-0.6 1.576-0.84 3.548-0.84 6.113v61.002h72l-2-2h-68.01v-55.002h85.998v37.002l2.01 2v-43.002c0-2.5652-0.24191-4.5374-0.83594-6.1133-0.59074-1.5759-1.5874-2.7446-2.9004-3.4688-2.6249-1.4483-6.2119-1.3599-11.25-1.418h-60.01zm-6.4863 4.125c1.9328 0.000113 3.5 1.5676 3.5 3.5 0 1.9332-1.5662 3.4999-3.5 3.5-1.9335 0.000945-3.5007-1.566-3.5-3.5 0-1.9332 1.5665-3.501 3.5-3.5zm10 0c1.9328 0.000113 3.5 1.5676 3.5 3.5 0 1.9332-1.5662 3.4999-3.5 3.5-1.9335 0.000945-3.5007-1.566-3.5-3.5 0-1.9332 1.5665-3.501 3.5-3.5zm10 0c1.9328 0.000113 3.5 1.5676 3.5 3.5 0 1.9332-1.5662 3.4999-3.5 3.5-1.9335 0.000945-3.5007-1.566-3.5-3.5 0-1.9332 1.5665-3.501 3.5-3.5z" transform="matrix(.26458 0 0 .26458 -652.98 269.21)" fill="#808080"/>
   <path id="path4756" style="color:#000000" d="m-451.64 289.32h2.1167l1.0583-2.9104 1.8521 6.6146 2.3812-9.7896 1.8521 6.0854h2.1167" stroke="#fa5b1b" stroke-width=".52917" fill="none"/>
  </g>
  <g id="g4794" transform="translate(5.8208 -52.917)">
   <path id="path4784" style="color:#000000" d="m-638.69 291.99c-1.7722-1.0243-2.3812-3.2898-1.3601-5.0602 1.021-1.7704 3.2854-2.3752 5.0577-1.3509 1.7722 1.0243 2.3812 3.2898 1.3602 5.0602-1.0211 1.7704-3.2854 2.3752-5.0577 1.3509z" fill="#fa5b1b"/>
   <path id="path4786" style="color:#000000" d="m-622.82 291.08c-1.2659-0.73166-1.7009-2.35-0.97157-3.6146 0.72935-1.2646 2.3468-1.6966 3.6128-0.96499 1.2659 0.73166 1.7009 2.35 0.97157 3.6146-0.72935 1.2646-2.3468 1.6966-3.6128 0.96499z" fill="#8f2a7a"/>
   <path id="path4788" style="color:#000000" d="m-629.17 291.08c-1.2659-0.73166-1.7009-2.35-0.97157-3.6146 0.72935-1.2646 2.3468-1.6966 3.6128-0.96499 1.2659 0.73166 1.7009 2.35 0.97157 3.6146-0.72935 1.2646-2.3468 1.6966-3.6128 0.96499z" fill="#bf0f62"/>
   <ellipse id="ellipse4790" stroke-linejoin="round" stroke="#808080" style="color:#000000" stroke-linecap="round" rx="8.7315" ry="8.7315" transform="scale(-1,1)" cy="288.79" cx="640.52" stroke-width=".52917" fill="none"/>
   <path id="path4792" style="color:#000000" d="m-652.69 300.96 5.9965-5.9965" stroke="#808080" stroke-width="1.5875" fill="none"/>
  </g>
  <g id="g4834" transform="matrix(.26458 0 0 .26458 -568.53 206.49)">
   <path id="path4816" style="color:#000000" d="m24.327 123.21c-10.05-5.81-13.503-18.66-7.713-28.697 5.79-10.039 18.631-13.469 28.681-7.661 10.05 5.809 13.503 18.658 7.713 28.698s-18.631 13.47-28.681 7.66z" stroke="#808080" stroke-width="2" fill="none"/>
   <path id="path4818" style="color:#000000" d="m-27.673 159.21c-10.05-5.8085-13.503-18.656-7.713-28.695 5.7901-10.04 18.631-13.469 28.681-7.6609 10.05 5.8085 13.503 18.656 7.713 28.695-5.7901 10.04-18.631 13.469-28.681 7.6609z" stroke="#808080" stroke-width="2" fill="none"/>
   <path id="path4820" style="color:#000000" d="m-27.673 87.208c-10.05-5.808-13.503-18.656-7.713-28.695 5.79-10.04 18.631-13.47 28.681-7.661 10.05 5.808 13.503 18.656 7.7128 28.695-5.7901 10.04-18.631 13.47-28.681 7.661z" stroke="#808080" stroke-width="2" fill="none"/>
   <path id="path4822" style="color:#000000" d="m-22.18 77.685c-4.7846-2.7653-6.4287-8.8817-3.6721-13.661 2.7566-4.7796 8.87-6.4125 13.655-3.6472 4.7846 2.7653 6.4287 8.8817 3.6721 13.661-2.7566 4.7796-8.87 6.4125-13.655 3.6472z" fill="#fa5b1b"/>
   <path id="path4824" style="color:#000000" d="m-22.18 149.68c-4.7846-2.7653-6.4287-8.8817-3.6721-13.661 2.7566-4.7796 8.87-6.4125 13.655-3.6472 4.7846 2.7653 6.4287 8.8817 3.6721 13.661-2.7566 4.7796-8.87 6.4125-13.655 3.6472z" fill="#8f2a7a"/>
   <path id="path4826" style="color:#000000" d="m29.82 113.68c-4.7846-2.7653-6.4287-8.8817-3.6721-13.661 2.7566-4.7796 8.87-6.4125 13.655-3.6472 4.7846 2.7653 6.4287 8.8817 3.6721 13.661-2.7566 4.7796-8.87 6.4125-13.655 3.6472z" fill="#bf0f62"/>
   <path id="path4828" style="color-rendering:auto;text-decoration-color:#000000;color:#000000;font-variant-numeric:normal;shape-rendering:auto;solid-color:#000000;text-decoration-line:none;font-variant-position:normal;mix-blend-mode:normal;block-progression:tb;font-feature-settings:normal;shape-padding:0;font-variant-alternates:normal;text-indent:0;font-variant-caps:normal;image-rendering:auto;white-space:normal;text-decoration-style:solid;font-variant-ligatures:normal;isolation:auto;text-transform:none" d="m325.83-192.87c-0.35569 0.57157-0.73608 1.1192-1.1367 1.6445l17.49 12.107c0.35541-0.57117 0.7286-1.1234 1.1289-1.6484zm16.375 35.982-17.533 12.139c0.40657 0.53136 0.7812 1.0828 1.1328 1.6465l17.533-12.139c-0.40667-0.53127-0.78109-1.0829-1.1328-1.6465z" transform="translate(-325.19 273.03)" fill="#808080"/>
   <circle id="circle4830" style="color:#000000" cx="8.8108" cy="87.03" r="4" fill="#808080"/>
   <circle id="circle4832" style="color:#000000" cy="123.03" cx="8.8108" r="4" fill="#808080"/>
  </g>
  <path id="path4850" style="color-rendering:auto;text-decoration-color:#000000;color:#000000;font-variant-numeric:normal;shape-rendering:auto;solid-color:#000000;text-decoration-line:none;font-variant-position:normal;mix-blend-mode:normal;block-progression:tb;font-feature-settings:normal;shape-padding:0;font-variant-alternates:normal;text-indent:0;font-variant-caps:normal;image-rendering:auto;white-space:normal;text-decoration-style:solid;font-variant-ligatures:normal;isolation:auto;text-transform:none" d="m-499.8 223.7c-2.5136 0-4.8068 1.3578-6.0251 3.5105-0.77667-0.62553-1.7357-0.99421-2.7432-0.99571-2.4086 0-4.3642 1.9244-4.3642 4.2945 0 0.32892 0.0543 0.65367 0.13014 0.9731-3.0667 0.75745-5.2424 3.45-5.2464 6.5738 0 3.7594 3.1018 6.8105 6.923 6.8105h17.904c3.8213 0 6.923-3.051 6.923-6.8105 0-3.6542-2.9488-6.6129-6.6385-6.7665 0.0327-0.25851 0.0586-0.5183 0.0605-0.77919v-0.00085c0-3.7594-3.1008-6.8093-6.9218-6.8093z" stroke="#808080" stroke-width=".52917" fill="none"/>
  <path id="ellipse6424" style="color:#000000" d="m-500.05 240.28a2.6536 2.6451 17.177 0 1 -0.97431 -3.6152 2.6536 2.6451 17.177 0 1 3.623 -0.96511 2.6536 2.6451 17.177 0 1 0.97435 3.6151 2.6536 2.6451 17.177 0 1 -3.623 0.96516z" fill="#8f2a7a"/>
  <path id="ellipse6427" style="color:#000000" d="m-506.4 240.28a2.6536 2.6451 17.177 0 1 -0.97434 -3.6151 2.6536 2.6451 17.177 0 1 3.623 -0.96512 2.6536 2.6451 17.177 0 1 0.97429 3.6151 2.6536 2.6451 17.177 0 1 -3.623 0.96514z" fill="#bf0f62"/>
  <path id="ellipse6429" style="color:#000000" d="m-512.75 240.28a2.6536 2.6451 17.177 0 1 -0.97431 -3.6152 2.6536 2.6451 17.177 0 1 3.623 -0.96511 2.6536 2.6451 17.177 0 1 0.97434 3.6151 2.6536 2.6451 17.177 0 1 -3.623 0.96516z" fill="#fa5b1b"/>
  <path id="path4740" style="color-rendering:auto;text-decoration-color:#000000;color:#000000;font-variant-numeric:normal;shape-rendering:auto;solid-color:#000000;text-decoration-line:none;font-variant-position:normal;mix-blend-mode:normal;block-progression:tb;font-feature-settings:normal;shape-padding:0;font-variant-alternates:normal;text-indent:0;font-variant-caps:normal;image-rendering:auto;white-space:normal;text-decoration-style:solid;font-variant-ligatures:normal;isolation:auto;text-transform:none" d="m-591.9 232.98v1.0351h-14.786v0.52917h14.786v1.0361s1.2245-0.50554 2.4123-1.3002c-1.1878-0.79462-2.4123-1.3002-2.4123-1.3002z" fill="#b3b3b3"/>
  <path id="path4742" style="color-rendering:auto;text-decoration-color:#000000;color:#000000;font-variant-numeric:normal;shape-rendering:auto;solid-color:#000000;text-decoration-line:none;font-variant-position:normal;mix-blend-mode:normal;block-progression:tb;font-feature-settings:normal;shape-padding:0;font-variant-alternates:normal;text-indent:0;font-variant-caps:normal;image-rendering:auto;white-space:normal;text-decoration-style:solid;font-variant-ligatures:normal;isolation:auto;text-transform:none" d="m-529.59 232.98v1.0351h-15.05v0.52917h15.05v1.0361s1.2245-0.50554 2.4123-1.3002c-1.1878-0.79462-2.4123-1.3002-2.4123-1.3002z" fill="#b3b3b3"/>
  <path id="path4744" style="color-rendering:auto;text-decoration-color:#000000;color:#000000;font-variant-numeric:normal;shape-rendering:auto;solid-color:#000000;text-decoration-line:none;font-variant-position:normal;mix-blend-mode:normal;block-progression:tb;font-feature-settings:normal;shape-padding:0;font-variant-alternates:normal;text-indent:0;font-variant-caps:normal;image-rendering:auto;white-space:normal;text-decoration-style:solid;font-variant-ligatures:normal;isolation:auto;text-transform:none" d="m-463.04 232.98v1.0351h-14.786v0.52917h14.786v1.0361s1.2245-0.50554 2.4123-1.3002c-1.1878-0.79462-2.4123-1.3002-2.4123-1.3002z" fill="#b3b3b3"/>
 </g>
</svg>
