<svg xmlns="http://www.w3.org/2000/svg" width="419" height="172" viewBox="0 0 419 172">
  <g fill="none" fill-rule="evenodd" transform="translate(1)">
    <g fill-rule="nonzero" transform="translate(0 2)">
      <path fill="#326DE6" stroke="#FFF" stroke-linejoin="round" stroke-width="1.303" d="M1.84348035,110.624874 C2.04581201,110.935247 2.2632352,111.235617 2.49497508,111.524912 L43.8821242,163.156594 C46.0519464,165.863336 49.3422468,167.439394 52.8217489,167.439394 L119.192285,167.432582 C122.671506,167.432079 125.961224,165.855291 128.130461,163.148442 L169.506724,111.507292 C171.675507,108.799921 172.487524,105.257211 171.712962,101.881799 L156.937789,37.4940182 C156.162922,34.1186041 153.885743,31.2779233 150.750751,29.7759585 L90.9495686,1.1260458 C87.8145752,-0.375690936 84.1630173,-0.375331576 81.0283225,1.12702218 L21.2331602,29.7894916 C18.0984893,31.2922766 15.8220102,34.1336113 15.0480453,37.5092996 L0.286338479,101.900214 C-0.400895691,104.898557 0.160808269,108.046036 1.84348035,110.625577 L1.84348035,110.624874 Z"/>
      <path fill="#FFF" d="M82.4107292,25.423944 C82.4061921,25.8146643 82.3948494,26.2131669 82.4061921,26.4929218 C82.4533778,27.7591036 82.7316372,28.7301016 82.8982163,29.896652 C83.2000232,32.3934749 83.4538504,34.4631772 83.2977974,36.3868712 C83.1560135,37.3496345 82.596727,37.728161 82.1297476,38.1737871 L82.0401401,39.7538391 C79.8716177,39.9321077 77.7066797,40.2599363 75.5612057,40.7457407 C66.520066,42.7928653 58.3744561,47.4698582 52.1004163,54.0854762 L50.8710251,53.2168469 C50.1821596,53.2691058 49.5362375,53.4686399 48.6930656,52.9788539 C47.0875955,51.901121 45.6234555,50.4130085 43.8541285,48.6209798 C43.0433968,47.7637751 42.4558217,46.9412739 41.4925986,46.1149947 C41.2621146,45.9172704 40.8982631,45.6476732 40.651786,45.4513515 C38.9310466,44.1172043 36.5648668,44.2734431 35.3409013,45.8030247 C34.1188178,47.3334754 34.4929668,49.6679345 36.1807838,51.0433733 C36.4919144,51.2933565 36.7939254,51.5485882 37.0180801,51.7136449 C38.04024,52.4662413 38.9749021,52.8543826 39.9933416,53.4518311 C42.138997,54.7732354 43.9196894,55.8655827 45.330564,57.1866702 C45.9970164,57.8974368 45.9454751,58.5695635 46.0037086,59.2115113 L47.1769534,60.2577983 C46.9497588,60.5985446 46.726262,60.9422545 46.5076653,61.2898103 C40.6362011,70.6235711 38.3174785,81.7109244 39.8816385,92.5541085 L38.3791602,92.9865002 C37.990695,93.5559641 37.7449892,94.1839535 36.8353036,94.5359887 C34.9893907,95.1158139 32.9095002,95.3296909 30.4014224,95.5918904 C29.2238674,95.6896214 28.2131637,95.6346477 26.9647848,95.8704463 C26.681217,95.9240626 26.2769855,96.0294854 25.9730688,96.0997974 C23.8012311,96.6233104 22.4485971,98.5654642 22.8845844,100.473327 C23.3224627,102.38037 25.3858993,103.544185 27.5165624,103.085843 C27.9021466,103.003767 28.2938331,102.926397 28.5644702,102.854003 C29.791797,102.526311 30.6787517,102.039533 31.7821481,101.617978 C34.1559055,100.76894 36.1224369,100.061567 38.0378126,99.7852054 C39.0105636,99.70874 39.5056957,100.168053 40.0452685,100.522893 L41.6711782,100.247527 C45.031434,110.612644 51.9485828,119.533672 61.2708857,125.381378 C61.6255723,125.603762 61.9835256,125.82024 62.3431122,126.032602 L61.7073532,127.566299 C61.9115447,128.22302 62.2503288,128.806329 61.9591841,129.73509 C61.2628777,131.535828 60.1337107,133.290733 58.7755344,135.409731 C58.1179066,136.388714 57.4448754,137.142713 56.8514474,138.263068 C56.7094367,138.531149 56.5266829,138.945352 56.3895949,139.228659 C55.4672048,141.199367 56.1466578,143.46522 57.9145771,144.314697 C59.6826594,145.161961 61.8813072,144.278709 62.8503129,142.331889 C63.024537,141.977094 63.2073361,141.625556 63.3191072,141.370189 C63.8273968,140.208955 63.998944,139.213818 64.3563756,138.090681 C65.1707369,135.710547 65.8423843,133.736314 66.8199446,132.070611 C67.3665045,131.264512 68.035044,131.164926 68.6496375,130.965482 L69.4795383,129.469361 C78.0237765,132.723531 87.403292,133.42828 96.4387377,131.382422 C98.5457826,130.905328 100.603078,130.282587 102.600507,129.528611 L103.337375,130.856372 C103.980121,131.107034 104.649069,131.206077 105.195697,132.012131 C106.173303,133.677788 106.844746,135.652112 107.659243,138.032224 C108.016743,139.155315 108.18863,140.15052 108.696988,141.311731 C108.812457,141.575447 109.005147,141.944494 109.1416,142.224294 C110.13555,144.220269 112.335149,145.103435 114.103401,144.255244 C115.870605,143.405261 116.549347,141.139867 115.626954,139.170179 C115.458628,138.810542 115.296927,138.449571 115.166644,138.20366 C114.573148,137.083328 113.90023,136.329261 113.242557,135.350323 C111.884268,133.231393 110.754851,131.47685 110.058431,129.676157 C109.767218,128.747419 110.106071,128.164087 110.332948,127.56053 L109.73412,126.115243 C116.081048,122.386241 121.508423,117.173175 125.494751,110.836181 C127.605766,107.480344 129.255608,103.896987 130.433345,100.180631 L131.897009,100.427651 C132.494406,100.082719 132.989561,99.6230218 133.962312,99.6994194 C135.877711,99.9756904 137.844174,100.682815 140.217977,101.531717 C141.321396,101.953227 142.208782,102.440117 143.436131,102.767742 C143.715162,102.842172 144.125269,102.922257 144.429798,102.990352 C146.614673,103.458306 148.678704,102.293424 149.115699,100.385459 C149.550513,98.4779989 148.197884,96.5370173 146.079119,96.0280602 C145.69358,95.9368672 145.308087,95.8373264 145.033185,95.7855199 C143.784829,95.5497666 142.774102,95.6040842 141.59657,95.5065116 C139.088469,95.2444251 137.008624,95.030797 135.162666,94.4510849 C134.252981,94.0990724 134.006821,93.4710377 133.675047,92.9178623 L132.166216,92.4840001 C132.922526,86.9701179 132.689342,81.311087 131.414966,75.7782694 C130.128861,70.194505 127.832506,64.9511023 124.693139,60.2770278 L125.923006,59.1795677 C126.025091,58.4989348 125.973822,57.8268307 126.639684,57.1160188 C128.050491,55.7948861 129.831319,54.7022447 131.976907,53.3807047 C132.995301,52.783211 133.930031,52.3947077 134.952145,51.6420434 C135.196717,51.4619651 135.541399,51.1681613 135.788171,50.9722016 C137.475203,49.5953602 137.848954,47.2602518 136.626103,45.7299301 C135.401763,44.2013307 133.036343,44.0457482 131.316194,45.3806776 C131.008443,45.6231499 130.688805,45.8622289 130.476084,46.0447279 C129.512907,46.8710524 128.925241,47.6939381 128.114577,48.5511881 C126.345341,50.3433073 124.881518,51.8312388 123.276094,52.9090622 C122.432944,53.3988482 121.787,53.1992915 121.146477,53.1131209 L119.740661,54.1069001 C117.078549,51.3120656 114.059822,48.8331827 110.733504,46.746649 C104.399711,42.7735906 97.2674816,40.4165547 89.9556745,39.7748106 L89.8681087,38.231091 C89.3977265,37.7266453 88.8383946,37.3481187 88.6966334,36.3853555 C88.5405577,34.4616614 88.7944076,32.3919591 89.0962145,29.8951362 C89.2627255,28.7285858 89.5410076,27.7575878 89.5882613,26.4914061 C89.599604,26.1884174 89.5837242,25.7367058 89.5837242,25.4221342 C89.5566316,23.2481043 87.9589112,21.5 85.9966369,21.5 C84.0336045,21.5032471 82.4367315,23.2504562 82.4107292,25.423944 Z M80.4387307,68.0146065 L80.3591048,68.0528392 C80.2876457,69.7320022 78.9042659,71.0713691 77.205173,71.0713691 C76.5091842,71.0713691 75.8663473,70.8480809 75.3443103,70.4679255 L59.9000055,59.5982273 C64.766097,54.826173 70.9020732,51.4456539 77.6728784,49.9125897 C78.9424908,49.6251204 80.2206557,49.4079178 81.5018831,49.2556204 L80.4387307,68.0146065 Z M105.728759,54.7007742 C107.99349,56.1214025 110.078599,57.7700472 111.961421,59.6076158 L96.658809,70.4279961 L96.5977852,70.4022059 C95.2386561,71.3921619 93.3260933,71.1482191 92.266684,69.823625 C91.8326891,69.2809692 91.6070372,68.6411706 91.5796559,67.9970511 L90.4951339,49.280958 C95.855745,49.9450536 101.062163,51.7735052 105.728759,54.7007742 Z M68.3657748,79.1566393 L68.3476264,79.2360457 C69.6200745,80.3391841 69.8069117,82.2529693 68.7475478,83.5777218 C68.3135756,84.1204002 67.7383867,84.4823215 67.1147644,84.6522422 L49.0396309,89.9168878 C48.1671948,81.8130894 49.994778,73.6156096 54.3021048,66.6147912 L68.3657748,79.1566393 Z M122.22814,77.8607537 C123.142,81.828292 123.384938,85.8756893 122.987535,89.8469152 L104.863968,84.6338045 L104.848088,84.5650309 C103.222315,84.1180248 102.221343,82.4746739 102.599305,80.8227941 C102.754246,80.1460976 103.115103,79.5711136 103.603021,79.1481783 L117.590536,66.6183204 C119.723783,70.0553288 121.303573,73.8465895 122.22814,77.8607537 Z M91.5723512,67.9988836 C91.6002543,68.6436139 91.8264507,69.2842043 92.2608312,69.8273578 C93.3222141,71.1544178 95.2377486,71.3991977 96.6000764,70.4088118 L96.6513455,70.433697 L94.3147468,72.0858709 L93.3507751,70.8852051 L91.7237537,70.8852051 L91.5588307,67.9922098 L91.5723512,67.9988836 Z M80.2758266,70.8831012 L78.6243278,70.8826035 L77.6263733,72.1253253 L75.3118021,70.4893947 L75.3419737,70.4758209 C75.8649408,70.8561347 76.5079365,71.0797395 77.2047193,71.0797395 C78.9071243,71.0797395 80.2935213,69.7385402 80.3663415,68.0586985 L80.4382543,68.0243117 L80.2758266,70.8831012 Z M103.594424,79.1424321 C103.106324,79.5662723 102.74524,80.1420707 102.590231,80.8194685 C102.211588,82.4742666 103.214035,84.1199477 104.839627,84.5648046 L104.855506,84.6306373 L102.176335,83.8599652 L102.530886,82.3186436 L101.471113,80.999004 L103.587777,79.1103076 L103.594424,79.1424321 Z M70.4700067,81.0331193 L69.4408824,82.3140512 L69.8131502,83.9356615 L67.1052365,84.7154054 L67.1188477,84.6581694 C67.7430372,84.4875927 68.3191108,84.1254451 68.7535367,83.5821785 C69.8147835,82.255028 69.6274927,80.3380756 68.3563603,79.2338739 L68.3722401,79.162114 L70.4700067,81.0331193 Z M88.8680899,80.1239271 L92.4618694,84.5998023 L91.1783508,90.1803316 L85.9843641,92.6629021 L80.7908765,90.1784087 L79.5092862,84.5974043 L83.1039731,80.1234294 L88.8680899,80.1239271 Z M102.363989,95.4435746 L102.334271,95.48045 C101.697582,95.3641682 101.020762,95.4413123 100.392943,95.7427626 C98.8592724,96.4794099 98.193546,98.2876366 98.8588414,99.8326004 L98.836156,99.8602004 L97.7672869,97.2844688 L99.2510724,96.5754441 L99.6180545,94.9801217 L102.363989,95.4435746 Z M72.7155461,96.5712136 L74.2510997,97.3060511 L73.1477261,99.9672973 L73.0978181,99.9041793 C73.3531199,99.311165 73.4282087,98.636414 73.2731765,97.9591066 C72.8943526,96.3041276 71.2749309,95.2545376 69.616649,95.5572774 L69.5907877,95.5253791 L72.3671887,95.0556822 L72.7155461,96.5712136 Z M102.335247,95.4880965 L121.018894,98.592797 C120.121118,101.105162 118.947964,103.532035 117.504649,105.82645 C114.566388,110.497403 110.65068,114.403339 106.080406,117.31622 L98.8401713,99.8684804 C98.2011683,98.2899215 98.8650345,96.4851335 100.395802,95.7498888 C100.866116,95.5241122 101.364038,95.4240737 101.851797,95.4374212 C102.014974,95.4419458 102.17629,95.4600441 102.335247,95.4880965 Z M73.2651005,97.9606676 C73.4200419,98.6373642 73.3455012,99.31164 73.0897421,99.9038174 L73.144414,99.9748533 L65.9841909,117.242922 C59.0735981,112.819826 53.8518218,106.274814 51.0720634,98.6561638 L69.5813052,95.5266686 C69.8215438,95.5268496 70.0279131,95.5098824 70.2312879,95.5128234 C71.6549344,95.5333423 72.9342335,96.5152219 73.2651005,97.9606676 Z M88.844134,104.743786 L88.7781195,104.743288 C88.472388,104.174299 87.9897102,103.695055 87.3618911,103.39356 C85.8282657,102.657071 83.996032,103.265514 83.1994107,104.747111 L84.5778451,102.245922 L85.9830483,102.918162 L87.4438536,102.220109 L88.844134,104.743786 Z M87.3574901,103.400731 C87.9845833,103.701888 88.4664217,104.180543 88.7713138,104.749034 L88.8485577,104.751477 L97.9726353,121.191095 C96.7807885,121.592041 95.5647137,121.935117 94.3266339,122.21546 C87.5626798,123.746986 80.5621167,123.344909 74.0945476,121.146166 L83.1860263,104.755301 C83.7499406,103.735573 84.7850311,103.130704 85.8761319,103.090843 C86.3715589,103.072541 86.8790999,103.17095 87.3574901,103.400731 Z"/>
    </g>
    <path fill="#888" d="M12.6612903 14.2941176C13.3031754 14.2941176 13.8225806 13.7814115 13.8225806 13.1485514 13.8225806 12.5127062 13.3031754 12 12.6612903 12 12.0194052 12 11.5 12.5127062 11.5 13.1485514 11.5 13.7814115 12.0194052 14.2941176 12.6612903 14.2941176M12.7741935 8.29411765C13.4160786 8.29411765 13.9354839 7.78074344 13.9354839 7.14705882 13.9354839 6.51337421 13.4160786 6 12.7741935 6 12.1323085 6 11.6129032 6.51337421 11.6129032 7.14705882 11.6129032 7.78074344 12.1323085 8.29411765 12.7741935 8.29411765M12.7741935 2.29411765C13.4160786 2.29411765 13.9354839 1.77842627 13.9354839 1.14556623 13.9354839.512706189 13.4160786 0 12.7741935 0 12.1323085 0 11.6129032.512706189 11.6129032 1.14556623 11.6129032 1.77842627 12.1323085 2.29411765 12.7741935 2.29411765M12.7741935 20.2941176C13.4160786 20.2941176 13.9354839 19.7784263 13.9354839 19.1455662 13.9354839 18.5127062 13.4160786 18 12.7741935 18 12.1323085 18 11.6129032 18.5127062 11.6129032 19.1455662 11.6129032 19.7784263 12.1323085 20.2941176 12.7741935 20.2941176M12.7741935 26.2941176C13.4160786 26.2941176 13.9354839 25.7807434 13.9354839 25.1470588 13.9354839 24.5133742 13.4160786 24 12.7741935 24 12.1323085 24 11.6129032 24.5133742 11.6129032 25.1470588 11.6129032 25.7807434 12.1323085 26.2941176 12.7741935 26.2941176M6.66091242 14.2941176C7.30258862 14.2941176 7.82258065 13.7814115 7.82258065 13.1485514 7.82258065 12.5127062 7.30258862 12 6.66091242 12 6.01923622 12 5.5 12.5127062 5.5 13.1485514 5.5 13.7814115 6.01923622 14.2941176 6.66091242 14.2941176M1.66129032 14.2941176C2.3031754 14.2941176 2.82258065 13.7814115 2.82258065 13.1485514 2.82258065 12.5127062 2.3031754 12 1.66129032 12 1.01940524 12 .5 12.5127062.5 13.1485514.5 13.7814115 1.01940524 14.2941176 1.66129032 14.2941176M17.6612903 14.2941176C18.3031754 14.2941176 18.8225806 13.7814115 18.8225806 13.1485514 18.8225806 12.5127062 18.3031754 12 17.6612903 12 17.0194052 12 16.5 12.5127062 16.5 13.1485514 16.5 13.7814115 17.0194052 14.2941176 17.6612903 14.2941176M23.6612903 14.2941176C24.3031754 14.2941176 24.8225806 13.7814115 24.8225806 13.1485514 24.8225806 12.5127062 24.3031754 12 23.6612903 12 23.0194052 12 22.5 12.5127062 22.5 13.1485514 22.5 13.7814115 23.0194052 14.2941176 23.6612903 14.2941176" transform="translate(196 73)"/>
    <g fill-rule="nonzero" transform="translate(246)">
      <rect width="172" height="172" fill="#E95420"/>
      <path fill="#FFF" d="M25.3413333 93.3816667C25.0976667 92.794 24.7823333 92.0486667 24.381 91.16L23.091 88.2933333C22.6323333 87.2613333 22.1306667 86.1863333 21.6576667 85.0826667 21.1846667 83.979 20.64 82.9326667 20.2243333 81.9436667 19.8086667 80.9546667 19.3356667 80.0803333 18.9343333 79.3063333 18.533 78.5323333 18.2033333 77.873 17.974 77.529 17.7016667 80.3956667 17.4866667 83.4916667 17.3146667 86.8313333 17.1426667 90.171 16.9993333 93.525 16.8703333 96.8646667L13.33 96.8646667C13.4303333 94.686 13.5306667 92.4786667 13.6596667 90.257 13.7886667 88.0353333 13.9176667 85.8566667 14.0753333 83.7066667 14.233 81.5566667 14.405 79.4066667 14.5913333 77.4286667 14.7776667 75.4506667 14.964 73.4583333 15.1933333 71.6953333L18.2893333 71.6953333C18.9391111 72.7751111 19.6414444 74.0364444 20.3963333 75.4793333 21.1416667 76.9126667 21.8296667 78.4606667 22.6466667 80.0516667 23.4636667 81.6426667 24.08 83.2336667 24.8396667 84.8246667L26.7603333 89.1246667C27.3432222 87.8155556 27.9882222 86.3822222 28.6953333 84.8246667 29.3976667 83.2336667 30.1286667 81.6426667 30.874 80.0516667 31.6193333 78.4606667 32.379 76.9413333 33.1386667 75.4793333 33.8983333 74.0173333 34.572 72.7703333 35.2456667 71.6953333L38.3416667 71.6953333C39.173 79.8366667 39.7941111 88.2455556 40.205 96.922L36.7363333 96.922C36.6216667 93.5202222 36.4783333 90.1757778 36.3063333 86.8886667 36.1343333 83.549 35.9193333 80.4386667 35.647 77.5863333 35.4033333 77.9876667 35.088 78.5896667 34.6866667 79.3636667 34.2853333 80.1376667 33.8553333 81.0263333 33.3966667 82.001 32.938 82.9756667 32.4363333 84.0363333 31.9633333 85.14 31.4903333 86.2436667 30.9456667 87.3186667 30.53 88.3506667L29.24 91.2173333C28.8386667 92.106 28.509 92.8513333 28.2653333 93.439L25.3413333 93.3816667zM46.827 74.5333333C46.2514733 74.5465238 45.6944044 74.3298859 45.279 73.9313333 44.4374118 73.0155408 44.4374118 71.6077925 45.279 70.692 45.6944044 70.2934474 46.2514733 70.0768095 46.827 70.09 47.4019716 70.079943 47.9578879 70.2961327 48.375 70.692 49.2165882 71.6077925 49.2165882 73.0155408 48.375 73.9313333 47.9578879 74.3272007 47.4019716 74.5433904 46.827 74.5333333L46.827 74.5333333zM48.5326667 96.879L45.15 96.879 45.15 77.9446667 48.5326667 77.9446667 48.5326667 96.879zM62.221 97.309C60.8430711 97.3371021 59.4735029 97.0885328 58.1933333 96.578 57.1009453 96.1164375 56.1225805 95.4217985 55.3266667 94.5426667 54.5229622 93.6441624 53.9217232 92.5834399 53.5636667 91.4323333 53.1456761 90.1405006 52.9328684 88.7911065 52.933 87.4333333 52.9175891 86.0685642 53.1357346 84.711214 53.578 83.42 53.965808 82.2599178 54.5796269 81.1881706 55.384 80.2666667 56.1734555 79.3732507 57.1529844 78.6679899 58.2506667 78.2026667 59.4405115 77.6908759 60.7252498 77.4368592 62.0203333 77.4573333 62.8517129 77.4669379 63.6809609 77.5436314 64.5 77.6866667 65.3349253 77.8262592 66.1520293 78.0569709 66.9366667 78.3746667L66.177 81.2413333C65.6407019 80.9893383 65.0783231 80.7970721 64.5 80.668 63.8025327 80.5211888 63.0914072 80.4491153 62.3786667 80.453 60.7506041 80.3664227 59.1704825 81.0195396 58.0786667 82.2303333 56.9437057 83.7195347 56.3747574 85.5635365 56.4733333 87.4333333 56.4575153 88.400065 56.5732424 89.3644574 56.8173333 90.3 57.0212111 91.0998334 57.3925002 91.847297 57.9066667 92.493 58.4180204 93.1227647 59.0780836 93.6153492 59.8273333 93.9263333 60.7385223 94.287853 61.714191 94.458595 62.694 94.428 63.5134312 94.4357813 64.3310347 94.3492115 65.1306667 94.17 65.7149221 94.0418785 66.2859516 93.859533 66.8363333 93.6253333L67.3093333 96.492C67.0458871 96.6372461 66.7670491 96.7526273 66.478 96.836 66.0683597 96.9560996 65.6519635 97.0518228 65.231 97.1226667L63.7976667 97.352C63.2717205 97.3671174 62.7453404 97.3527615 62.221 97.309zM77.5433333 77.5433333C77.8774928 77.5238074 78.2125072 77.5238074 78.5466667 77.5433333 78.9218345 77.5690155 79.2951537 77.6168769 79.6646667 77.6866667L80.668 77.8586667C80.8955799 77.9034253 81.1204851 77.9608479 81.3416667 78.0306667L80.754 80.9833333C79.5597834 80.5771464 78.3025428 80.3878322 77.0416667 80.4243333 76.4105469 80.4265539 75.7813355 80.4937979 75.164 80.625L73.9456667 80.8973333 73.9456667 96.8073333 70.563 96.8073333 70.563 78.7473333C71.5358565 78.4000322 72.5321377 78.122223 73.5443333 77.916 74.8614333 77.6577794 76.2012 77.5329266 77.5433333 77.5433333L77.5433333 77.5433333zM100.964 87.4333333C100.984168 88.8113444 100.770934 90.1828282 100.333333 91.4896667 99.9225824 92.6387862 99.289409 93.6956987 98.47 94.6 97.6732461 95.4746421 96.6948266 96.1644279 95.6033333 96.621 93.3078098 97.5655412 90.7321902 97.5655412 88.4366667 96.621 87.3451734 96.1644279 86.3667539 95.4746421 85.57 94.6 84.759237 93.6889932 84.1358201 92.6272363 83.7353333 91.4753333 82.8565355 88.8327004 82.8565355 85.9766329 83.7353333 83.334 84.1733468 82.1914331 84.8362132 81.1483932 85.6846667 80.2666667 86.4814206 79.3920246 87.4598401 78.7022388 88.5513333 78.2456667 90.8468568 77.3011255 93.4224765 77.3011255 95.718 78.2456667 96.8094932 78.7022388 97.7879128 79.3920246 98.5846667 80.2666667 99.3628904 81.1700609 99.9569281 82.2169305 100.333333 83.3483333 100.775241 84.6640063 100.988546 86.0456465 100.964 87.4333333L100.964 87.4333333zM97.4666667 87.4333333C97.5671592 85.6295874 97.0627283 83.843902 96.0333333 82.3593333 95.0811863 81.172534 93.6418709 80.4819939 92.1203333 80.4819939 90.5987958 80.4819939 89.1594804 81.172534 88.2073333 82.3593333 87.1779384 83.843902 86.6735075 85.6295874 86.774 87.4333333 86.6735075 89.2370793 87.1779384 91.0227646 88.2073333 92.5073333 89.1594804 93.6941326 90.5987958 94.3846728 92.1203333 94.3846728 93.6418709 94.3846728 95.0811863 93.6941326 96.0333333 92.5073333 97.0627283 91.0227646 97.5671592 89.2370793 97.4666667 87.4333333L97.4666667 87.4333333zM124.255667 71.6666667C123.510333 72.498 122.664667 73.4153333 121.704333 74.4186667 120.744 75.422 119.769333 76.454 118.737333 77.5146667L115.67 80.5963333C114.647556 81.6187778 113.692 82.5743333 112.803333 83.463 113.958097 84.2802623 115.059247 85.1707573 116.1 86.129 117.275333 87.204 118.407667 88.3363333 119.525667 89.5546667 120.643667 90.773 121.69 92.0056667 122.679 93.267 123.573012 94.4119047 124.391735 95.6136553 125.13 96.8646667L120.987667 96.8646667C120.21052 95.672591 119.368358 94.5241878 118.465 93.4246667 117.519 92.278 116.515667 91.1743333 115.469333 90.1136667 114.423 89.053 113.348 88.0783333 112.258667 87.247 111.268666 86.4082912 110.219626 85.6418697 109.119667 84.9536667L109.119667 96.922 105.579333 96.922 105.579333 71.6666667 109.119667 71.6666667 109.119667 82.8036667C109.965333 82.0153333 110.897 81.098 111.986333 80.0946667 113.075667 79.0913333 114.021667 78.0736667 115.010667 77.056L117.877333 74.1893333C118.766 73.2576667 119.511333 72.4263333 120.113333 71.724L124.255667 71.6666667zM143.519667 90.3C143.537946 91.2815361 143.357553 92.2566328 142.989333 93.1666667 142.641569 94.0273355 142.108099 94.8006231 141.427 95.4313333 140.664714 96.082625 139.776828 96.5704749 138.818333 96.8646667 137.655289 97.2331382 136.440563 97.4122015 135.220667 97.395 133.870517 97.4329595 132.526154 97.2040281 131.264667 96.7213333 130.314169 96.3346632 129.454928 95.7536992 128.742 95.0156667 128.130142 94.3813774 127.669556 93.617001 127.394667 92.7796667 127.13524 92.0376592 126.999652 91.2580264 126.9933 90.472 126.991037 89.7835729 127.107407 89.0999 127.337333 88.451 127.562635 87.8140353 127.865942 87.2074199 128.240333 86.645 128.622004 86.1170367 129.064617 85.6359352 129.559 85.2116667 130.04904 84.7701126 130.576586 84.3720546 131.135667 84.022 128.86671 82.8759232 127.472815 80.5135793 127.566667 77.9733333 127.558894 77.0655202 127.744569 76.166463 128.111333 75.336 128.469809 74.489498 129.002075 73.7277221 129.673667 73.1 130.376387 72.4714014 131.194076 71.9846819 132.081667 71.6666667 133.093002 71.28277 134.167685 71.0931201 135.249333 71.1076667 136.440901 71.0558723 137.63061 71.2460307 138.746667 71.6666667 139.641496 72.0277556 140.455273 72.563777 141.140333 73.2433333 141.7317 73.8548617 142.190392 74.5819373 142.487667 75.379 142.751929 76.1003591 142.892461 76.8611697 142.903333 77.6293333 142.910479 78.3064131 142.803886 78.9798869 142.588 79.6216667 142.186884 80.8237456 141.48646 81.9039765 140.552667 82.7606667 140.109096 83.1709646 139.629369 83.5403545 139.119333 83.8643333 141.782644 84.8845803 143.535364 87.448004 143.519667 90.3zM130.433333 90.5293333C130.428 91.0166549 130.505549 91.5013371 130.662667 91.9626667 130.832995 92.4535684 131.112319 92.8995061 131.479667 93.267 131.891542 93.6869035 132.377482 94.0270617 132.913 94.2703333 133.641951 94.559549 134.422486 94.6961427 135.206333 94.6716667 135.948483 94.6882236 136.687248 94.5667163 137.385 94.3133333 137.942726 94.1041048 138.454032 93.7875821 138.89 93.3816667 139.268768 93.0178106 139.566676 92.5782754 139.764333 92.0916667 139.943226 91.6344033 140.040262 91.1492277 140.051 90.6583333 140.065955 89.9558617 139.918814 89.2593935 139.621 88.623 139.312492 88.0332144 138.882624 87.5154192 138.359667 87.1036667 137.76624 86.6326197 137.103956 86.2555533 136.396 85.9856667 135.54654 85.6604778 134.674721 85.3970158 133.787333 85.1973333 132.775472 85.7368163 131.909772 86.5139784 131.264667 87.462 130.697394 88.3828109 130.408673 89.448092 130.433333 90.5293333L130.433333 90.5293333zM139.535 77.6293333C139.500162 76.7307719 139.150018 75.8731745 138.546 75.207 138.174714 74.8122971 137.732168 74.4913299 137.241667 74.261 136.61962 73.9855474 135.943658 73.853294 135.263667 73.874 134.585444 73.8575167 133.911392 73.9845121 133.285667 74.2466667 132.783465 74.4584135 132.329847 74.7705809 131.952667 75.164 131.622332 75.5248983 131.368759 75.9491447 131.207333 76.411 131.055999 76.8341952 130.978428 77.2802268 130.978 77.7296667 130.974358 78.2778247 131.071529 78.8219811 131.264667 79.335 131.474653 79.8643999 131.780809 80.3503622 132.167667 80.7683333 132.637839 81.2674506 133.184593 81.6884022 133.787333 82.0153333 134.546095 82.4044145 135.350095 82.6980911 136.181 82.8896667 137.125652 82.3447877 137.953652 81.6190698 138.617667 80.754 139.245954 79.8308507 139.562381 78.7308894 139.520667 77.615L139.535 77.6293333zM152.478 94.428C153.533985 94.4952607 154.590713 94.3084901 155.559667 93.8833333 156.204858 93.5459935 156.592027 92.8614335 156.548667 92.1346667 156.567575 91.359411 156.202907 90.6247126 155.574 90.171 154.562474 89.5004333 153.475132 88.9519512 152.334667 88.537 151.603667 88.236 150.901333 87.9493333 150.242 87.6483333 149.621022 87.3642854 149.038319 87.0031061 148.507667 86.5733333 147.443158 85.66973 146.851552 84.3280517 146.902333 82.9326667 146.840335 81.3808298 147.534986 79.8953467 148.765667 78.948 150.237947 77.9041304 152.024311 77.3980782 153.825333 77.5146667 154.361584 77.5151162 154.897438 77.5438227 155.430667 77.6006667 155.961 77.6006667 156.462667 77.7296667 156.864 77.8156667 157.265333 77.9016667 157.724 77.9876667 158.082333 78.088L158.899333 78.346 158.283 81.2126667C157.729631 80.9589585 157.153804 80.7574189 156.563 80.6106667 155.624274 80.3880027 154.660835 80.2868416 153.696333 80.3096667 152.836392 80.2893151 151.984698 80.4813153 151.216667 80.8686667 150.544199 81.1914747 150.131561 81.8867409 150.170333 82.6316667 150.158455 83.0079023 150.237105 83.3814886 150.399667 83.721 150.572215 84.0612283 150.822681 84.3558934 151.130667 84.581 151.508906 84.8643877 151.917537 85.1047588 152.349 85.2976667 152.836333 85.5126667 153.409667 85.742 154.097667 85.9856667 154.785667 86.2293333 155.789 86.6593333 156.491333 86.989 157.147311 87.2787142 157.756092 87.6652417 158.297333 88.1356667 158.798336 88.5636338 159.191216 89.1038435 159.444 89.7123333 159.731288 90.4368256 159.867847 91.2122849 159.845333 91.9913333 159.987275 93.5643112 159.296969 95.097117 158.025 96.0333333 156.354956 97.0334494 154.420743 97.5032583 152.478 97.3806667 151.156174 97.4187973 149.835224 97.2789888 148.550667 96.965 147.595111 96.6783333 146.950111 96.4633333 146.615667 96.32L147.232 93.4533333 149.095333 94.1126667C150.199336 94.3947445 151.340882 94.5011597 152.478 94.428L152.478 94.428z"/>
    </g>
  </g>
</svg>
