<svg xmlns="http://www.w3.org/2000/svg" xmlns:xlink="http://www.w3.org/1999/xlink" viewBox="0 0 290 200"><defs><style>.cls-1{fill:none;}.cls-2{clip-path:url(#clip-path);}.cls-3{clip-path:url(#clip-path-2);}.cls-4{fill:#666;}.cls-5{fill:#e95420;}.cls-6{fill:#999;}.cls-7{clip-path:url(#clip-path-3);}.cls-8{clip-path:url(#clip-path-4);}.cls-9{fill:#326de6;}.cls-10{fill:#fff;}.cls-11{clip-path:url(#clip-path-5);}</style><clipPath id="clip-path"><path class="cls-1" d="M449.42,148.91a7.17,7.17,0,0,0,.45.63l28.88,36a8,8,0,0,0,6.23,3h46.31a8,8,0,0,0,6.24-3l28.86-36a7.88,7.88,0,0,0,1.54-6.71L557.62,97.89a8,8,0,0,0-4.31-5.38l-41.72-20a8,8,0,0,0-6.93,0L463,92.52a8,8,0,0,0-4.32,5.38l-10.3,44.93a7.89,7.89,0,0,0,1.09,6.09Z"/></clipPath><clipPath id="clip-path-2"><path class="cls-1" d="M509.08,143.87a2.22,2.22,0,0,1,1,.95h.05l6.36,11.47a24.49,24.49,0,0,1-2.54.71,26,26,0,0,1-14.11-.74l6.34-11.44a2.24,2.24,0,0,1,2.91-.95Zm1,.94h-.05a2.15,2.15,0,0,0-1-.94,2.21,2.21,0,0,0-2.9.94l1-1.74,1,.47,1-.49Zm-10.87-4.73a2.17,2.17,0,0,1-.13,1.36l0,0-5,12.05a26,26,0,0,1-10.41-13l12.92-2.18h.45A2.22,2.22,0,0,1,499.25,140.08Zm20.28-1.73,13,2.17a25.3,25.3,0,0,1-2.45,5,25.71,25.71,0,0,1-8,8l-5-12.17a2.23,2.23,0,0,1,1.09-2.87,2.12,2.12,0,0,1,1-.22A1.87,1.87,0,0,1,519.53,138.35Zm-20.67.76,1.07.51-.76,1.86,0,0a2.17,2.17,0,0,0,.12-1.36,2.2,2.2,0,0,0-2.55-1.68l0,0,1.94-.33Zm20.69-.79,0,0a2.2,2.2,0,0,0-2.43,3h0l-.75-1.79,1-.5.25-1.11Zm-9.42-10.68,2.51,3.12-.9,3.89-3.62,1.73-3.62-1.73-.9-3.89,2.51-3.13Zm-12.83.63-.72.89.26,1.13-1.89.55v0a2.2,2.2,0,0,0,.86-3.79V127ZM520.41,127a2.17,2.17,0,0,0-.7,1.17,2.19,2.19,0,0,0,1.57,2.61v.05l-1.87-.54.25-1.07-.74-.92,1.47-1.32Zm-16.27-5.76H503l-.7.86-1.61-1.14h0a2.16,2.16,0,0,0,1.3.43,2.21,2.21,0,0,0,2.2-2.11l.05,0Zm7.88-2a2.21,2.21,0,0,0,3.51,1.68h0L513.93,122l-.67-.84h-1.13l-.12-2Zm21.39,6.88a26.19,26.19,0,0,1,.53,8.36l-12.65-3.64v-.05a2.2,2.2,0,0,1-1.57-2.61,2.23,2.23,0,0,1,.7-1.17l9.76-8.74A26,26,0,0,1,533.41,126.06Zm-37.58.9V127a2.19,2.19,0,0,1-.86,3.77l-12.61,3.68A25.71,25.71,0,0,1,486,118.21ZM521.9,109.9a25.85,25.85,0,0,1,4.34,3.42l-10.67,7.55,0,0a2.21,2.21,0,0,1-3.51-1.68l-.75-13A26,26,0,0,1,521.9,109.9Zm-17.65,9.29-.05,0a2.21,2.21,0,0,1-3.5,1.69l-10.78-7.59a26,26,0,0,1,12.4-6.75c.89-.2,1.78-.35,2.67-.46Zm1.38-29.72c0,.27,0,.55,0,.75a21.42,21.42,0,0,0,.35,2.37,23.24,23.24,0,0,1,.28,4.53,2,2,0,0,1-.82,1.25l-.06,1.1a31.86,31.86,0,0,0-4.52.69,32.42,32.42,0,0,0-16.37,9.31l-.86-.61a2.18,2.18,0,0,1-1.52-.16,23.61,23.61,0,0,1-3.37-3,20.67,20.67,0,0,0-1.65-1.75c-.16-.14-.41-.33-.59-.47a2.51,2.51,0,1,0-3.12,3.91c.22.17.43.35.59.46A20.32,20.32,0,0,0,476,109a23.57,23.57,0,0,1,3.73,2.6,2,2,0,0,1,.47,1.42l.82.73c-.16.23-.32.47-.47.72A32.27,32.27,0,0,0,476,136.31l-1,.3c-.27.4-.44.83-1.08,1.08a24.41,24.41,0,0,1-4.49.74,20.36,20.36,0,0,0-2.4.19l-.69.16a2.51,2.51,0,1,0,1.08,4.88l.73-.17a19.84,19.84,0,0,0,2.25-.86,23.94,23.94,0,0,1,4.36-1.28,2,2,0,0,1,1.4.52l1.13-.2a32.6,32.6,0,0,0,13.68,17.54q.38.24.75.45l-.45,1.07a2.17,2.17,0,0,1,.18,1.52,23.73,23.73,0,0,1-2.22,4,19.72,19.72,0,0,0-1.34,2c-.1.18-.23.47-.33.67A2.51,2.51,0,1,0,492,171l.33-.67a23,23,0,0,0,.72-2.29,23.51,23.51,0,0,1,1.72-4.2,2,2,0,0,1,1.28-.77l.58-1.05a32.38,32.38,0,0,0,23.1,0l.52.93a2.12,2.12,0,0,1,1.29.81,22.79,22.79,0,0,1,1.72,4.2,20,20,0,0,0,.73,2.28c.08.19.21.45.31.64a2.67,2.67,0,0,0,3.46,1.42,2.64,2.64,0,0,0,1.06-3.55c-.12-.25-.23-.5-.32-.67a18.65,18.65,0,0,0-1.34-2,23,23,0,0,1-2.22-4,1.93,1.93,0,0,1,.19-1.48l-.42-1a32.21,32.21,0,0,0,14.44-18.09l1,.17a2.24,2.24,0,0,1,1.44-.51,24.25,24.25,0,0,1,4.37,1.28,22.67,22.67,0,0,0,2.24.86c.2.06.48.11.7.16a2.68,2.68,0,0,0,3.27-1.82,2.65,2.65,0,0,0-2.12-3l-.73-.17a22.53,22.53,0,0,0-2.4-.19,23.59,23.59,0,0,1-4.49-.74,2,2,0,0,1-1-1.07l-1-.3a32.33,32.33,0,0,0-5.21-22.47L536,113a2.16,2.16,0,0,1,.5-1.44,23,23,0,0,1,3.72-2.6,20.32,20.32,0,0,0,2.07-1.22c.18-.12.42-.33.59-.46a2.51,2.51,0,1,0-3.12-3.9c-.22.16-.44.33-.59.46a22.31,22.31,0,0,0-1.65,1.75,23,23,0,0,1-3.37,3,2,2,0,0,1-1.49.14l-1,.69a32.65,32.65,0,0,0-20.78-10l-.06-1.07a2.19,2.19,0,0,1-.82-1.29,23.24,23.24,0,0,1,.28-4.53,21.42,21.42,0,0,0,.35-2.37c0-.21,0-.53,0-.75a2.51,2.51,0,1,0-5,0Z"/></clipPath><clipPath id="clip-path-3"><path class="cls-1" d="M161.7,44.83c.06.1.13.18.19.27L174,60.21a3.33,3.33,0,0,0,2.61,1.25H196a3.35,3.35,0,0,0,2.62-1.25l12.11-15.12a3.31,3.31,0,0,0,.64-2.81l-4.32-18.85a3.35,3.35,0,0,0-1.81-2.26l-17.5-8.38a3.35,3.35,0,0,0-2.9,0l-17.5,8.39a3.31,3.31,0,0,0-1.81,2.26l-4.32,18.84a3.31,3.31,0,0,0,.45,2.55Z"/></clipPath><clipPath id="clip-path-4"><rect class="cls-1" x="-21.3" y="-30.63" width="303.15" height="304.11"/></clipPath><clipPath id="clip-path-5"><path class="cls-1" d="M186.73,42.72a1,1,0,0,1,.41.39h0l2.67,4.81c-.34.11-.7.21-1.06.3a10.92,10.92,0,0,1-5.92-.32l2.66-4.79a.93.93,0,0,1,.78-.49A.85.85,0,0,1,186.73,42.72Zm.43.39h0a1,1,0,0,0-.41-.39.93.93,0,0,0-1.22.39l.4-.73.42.2.42-.21Zm-4.56-2a.86.86,0,0,1,0,.57l0,0-2.1,5.05a10.86,10.86,0,0,1-4.36-5.44l5.42-.91h.19A.93.93,0,0,1,182.6,41.13Zm8.51-.73,5.47.91a10.64,10.64,0,0,1-1,2.12,10.82,10.82,0,0,1-3.34,3.36l-2.12-5.1a1,1,0,0,1,.45-1.21,1.11,1.11,0,0,1,.43-.09Zm-8.67.32.45.22-.32.78v0a1,1,0,0,0,.05-.57.94.94,0,0,0-1.07-.71h0l.81-.14Zm8.68-.33h0a1,1,0,0,0-.57.08.93.93,0,0,0-.45,1.2h0l-.32-.75.44-.21.11-.46Zm-4-4.48,1.05,1.31-.37,1.63-1.52.73-1.52-.73-.38-1.63,1-1.31Zm-5.38.26-.31.38.11.47-.79.23h0a.89.89,0,0,0,.47-.32.92.92,0,0,0-.11-1.27v0Zm9.69-.55a.91.91,0,0,0-.29.49.93.93,0,0,0,.65,1.1v0l-.79-.23.11-.45-.31-.39.62-.55Zm-6.82-2.42h-.49l-.29.37-.68-.48h0a.87.87,0,0,0,.55.18.92.92,0,0,0,.92-.88h0Zm3.3-.84a1,1,0,0,0,.2.54.94.94,0,0,0,1.27.17h0l-.69.49-.28-.36H188l0-.84Zm9,2.89a10.6,10.6,0,0,1,.22,3.5l-5.3-1.52v0a.92.92,0,0,1-.66-1.1.91.91,0,0,1,.29-.49l4.1-3.66A10.82,10.82,0,0,1,196.93,35.25Zm-15.76.38v0a.91.91,0,0,1,.12,1.27.89.89,0,0,1-.48.31l-5.29,1.54A10.8,10.8,0,0,1,177.05,32Zm10.93-7.16a10.7,10.7,0,0,1,1.83,1.43l-4.48,3.17h0a.93.93,0,0,1-1.27-.17.94.94,0,0,1-.2-.53l-.31-5.48A10.88,10.88,0,0,1,192.1,28.47Zm-7.4,3.89,0,0a.92.92,0,0,1-.92.88,1,1,0,0,1-.55-.18l-4.52-3.18a10.94,10.94,0,0,1,5.2-2.83,9,9,0,0,1,1.12-.19Zm.58-12.46v.31a7.77,7.77,0,0,0,.14,1,9.34,9.34,0,0,1,.12,1.9.84.84,0,0,1-.34.52l0,.46a15.14,15.14,0,0,0-1.89.29,13.6,13.6,0,0,0-6.87,3.91l-.36-.26a.87.87,0,0,1-.64-.07A9.27,9.27,0,0,1,174,26.69a9.36,9.36,0,0,0-.69-.73l-.25-.2a1.05,1.05,0,1,0-1.31,1.64,2.77,2.77,0,0,0,.25.19,7.86,7.86,0,0,0,.87.51,9.56,9.56,0,0,1,1.56,1.1.84.84,0,0,1,.2.59l.34.3-.2.31a13.63,13.63,0,0,0-1.94,9.15l-.44.12a.91.91,0,0,1-.45.46,10.08,10.08,0,0,1-1.88.31,7.21,7.21,0,0,0-1,.08l-.29.06a1.06,1.06,0,1,0,.46,2.05l.3-.07c.36-.1.62-.24.94-.36a9.8,9.8,0,0,1,1.83-.54.82.82,0,0,1,.59.22l.48-.08a13.67,13.67,0,0,0,5.73,7.35l.32.19-.19.45a1,1,0,0,1,.08.64,10.42,10.42,0,0,1-.94,1.66,7.51,7.51,0,0,0-.56.83l-.13.29a1.09,1.09,0,0,0,.44,1.48,1.12,1.12,0,0,0,1.45-.58c.05-.1.1-.2.13-.28a9.7,9.7,0,0,0,.31-1,9.86,9.86,0,0,1,.72-1.76.8.8,0,0,1,.53-.32l.25-.44a13.69,13.69,0,0,0,7.89.56,14.31,14.31,0,0,0,1.8-.54l.21.38a1,1,0,0,1,.55.34,10.66,10.66,0,0,1,.72,1.76,7.54,7.54,0,0,0,.3,1l.13.27a1.13,1.13,0,0,0,1.46.6,1.12,1.12,0,0,0,.44-1.49l-.13-.28a8.81,8.81,0,0,0-.57-.84,10.65,10.65,0,0,1-.93-1.66.89.89,0,0,1,.08-.62l-.17-.42a13.68,13.68,0,0,0,4.61-4.47,13.35,13.35,0,0,0,1.44-3.12l.43.07a.9.9,0,0,1,.61-.21,9.7,9.7,0,0,1,1.83.53,8,8,0,0,0,.94.37l.29.06a1.05,1.05,0,1,0,.48-2l-.3-.07a8.94,8.94,0,0,0-1-.08,10.08,10.08,0,0,1-1.88-.31.83.83,0,0,1-.44-.45l-.44-.12a13.58,13.58,0,0,0-2.19-9.43l.36-.32a.92.92,0,0,1,.21-.6,10.14,10.14,0,0,1,1.57-1.1,8.9,8.9,0,0,0,.87-.51l.24-.19a1.05,1.05,0,1,0-1.31-1.64,2.81,2.81,0,0,0-.24.2,6.67,6.67,0,0,0-.69.73,9.8,9.8,0,0,1-1.42,1.27.77.77,0,0,1-.62.06l-.42.29a13.66,13.66,0,0,0-8.71-4.19l0-.45a1,1,0,0,1-.34-.54,9.34,9.34,0,0,1,.12-1.9,7.77,7.77,0,0,0,.14-1V19.9a1.05,1.05,0,1,0-2.1,0Z"/></clipPath></defs><title>Artboard 2 copy 16</title><g id="Layer_1" data-name="Layer 1"><path class="cls-4" d="M73.38,91.14a4.7,4.7,0,1,1,4.7-4.7A4.71,4.71,0,0,1,73.38,91.14Zm0-7.4a2.7,2.7,0,1,0,2.7,2.7A2.7,2.7,0,0,0,73.38,83.74Z"/><path class="cls-4" d="M73.36,83.74a1,1,0,0,1-1-1v-6.1a1,1,0,0,1,2,0v6.1A1,1,0,0,1,73.36,83.74Z"/><path class="cls-4" d="M236.83,110.84a1,1,0,0,1-1-1v-7.71a1,1,0,0,1,2,0v7.71A1,1,0,0,1,236.83,110.84Z"/><path class="cls-4" d="M236.83,92.65a1,1,0,0,1-1-1V75.4a1,1,0,0,1,2,0V91.65A1,1,0,0,1,236.83,92.65Z"/><path class="cls-5" d="M236.83,102a5.31,5.31,0,1,1,5.31-5.31A5.32,5.32,0,0,1,236.83,102Zm0-8.62a3.31,3.31,0,1,0,3.31,3.31A3.32,3.32,0,0,0,236.83,93.4Z"/><path class="cls-4" d="M223.94,110.84a1,1,0,0,1-1-1V92.41a1,1,0,0,1,2,0v17.43A1,1,0,0,1,223.94,110.84Z"/><path class="cls-4" d="M223.94,84.73a1,1,0,0,1-1-1V75.4a1,1,0,0,1,2,0v8.33A1,1,0,0,1,223.94,84.73Z"/><path class="cls-5" d="M223.94,93.4a5.32,5.32,0,1,1,5.31-5.32A5.33,5.33,0,0,1,223.94,93.4Zm0-8.63a3.32,3.32,0,1,0,3.31,3.31A3.32,3.32,0,0,0,223.94,84.77Z"/><path class="cls-4" d="M249.72,110.84a1,1,0,0,1-1-1V92.41a1,1,0,0,1,2,0v17.43A1,1,0,0,1,249.72,110.84Z"/><path class="cls-4" d="M249.72,84.62a1,1,0,0,1-1-1V75.4a1,1,0,0,1,2,0v8.22A1,1,0,0,1,249.72,84.62Z"/><path class="cls-5" d="M249.72,93.4A5.32,5.32,0,1,1,255,88.08,5.33,5.33,0,0,1,249.72,93.4Zm0-8.63A3.32,3.32,0,1,0,253,88.08,3.32,3.32,0,0,0,249.72,84.77Z"/><path class="cls-6" d="M122.56,199.9a1.42,1.42,0,0,1-.57-.12,1.5,1.5,0,0,1-.93-1.38v-59a1.5,1.5,0,0,1,.44-1.06l17.13-17.12H104.36v57.54a1.5,1.5,0,0,1-1.5,1.5H63.53a31,31,0,1,1,2.75-61.92,26.8,26.8,0,0,1,40.09-21.87,36,36,0,0,1,66.88,18.35c0,1.13-.05,2.28-.16,3.43a31,31,0,0,1-1.34,62H142.88l-19.26,19.24A1.53,1.53,0,0,1,122.56,199.9Zm1.5-59.92v54.8l17.14-17.12a1.46,1.46,0,0,1,1.06-.44h29.49a28,28,0,1,0,0-56h-.33a1.59,1.59,0,0,1-1.15-.51,1.51,1.51,0,0,1-.36-1.2,33,33,0,0,0-61.67-20.25,1.5,1.5,0,0,1-1,.74,1.44,1.44,0,0,1-1.19-.2,23.81,23.81,0,0,0-36.85,19.91V120a1.45,1.45,0,0,1-.51,1.14,1.51,1.51,0,0,1-1.2.36,28.9,28.9,0,0,0-4-.29,28,28,0,0,0,0,56h37.83V119.68a1.5,1.5,0,0,1,1.5-1.5h39.4a1.5,1.5,0,0,1,1.06,2.56Z"/><path class="cls-4" d="M95.54,43.2H51.18a3.46,3.46,0,0,1-3.46-3.46v-7.4a3.47,3.47,0,0,1,3.46-3.46H95.54A3.47,3.47,0,0,1,99,32.34v7.4A3.46,3.46,0,0,1,95.54,43.2ZM51.18,30.88a1.47,1.47,0,0,0-1.46,1.46v7.4a1.46,1.46,0,0,0,1.46,1.46H95.54A1.46,1.46,0,0,0,97,39.74v-7.4a1.46,1.46,0,0,0-1.46-1.46Z"/><path class="cls-6" d="M56.17,39.52A3.48,3.48,0,1,1,59.65,36,3.49,3.49,0,0,1,56.17,39.52Zm0-5A1.48,1.48,0,1,0,57.65,36,1.49,1.49,0,0,0,56.17,34.56Z"/><path class="cls-5" d="M66,39.52A3.48,3.48,0,1,1,69.49,36,3.48,3.48,0,0,1,66,39.52Zm0-5A1.48,1.48,0,1,0,67.49,36,1.49,1.49,0,0,0,66,34.56Z"/><path class="cls-4" d="M95.54,60.4H51.18a3.46,3.46,0,0,1-3.46-3.46v-7.4a3.46,3.46,0,0,1,3.46-3.46H95.54A3.46,3.46,0,0,1,99,49.54v7.4A3.46,3.46,0,0,1,95.54,60.4ZM51.18,48.08a1.47,1.47,0,0,0-1.46,1.46v7.4a1.46,1.46,0,0,0,1.46,1.46H95.54A1.46,1.46,0,0,0,97,56.94v-7.4a1.46,1.46,0,0,0-1.46-1.46Z"/><path class="cls-6" d="M56.17,56.72a3.48,3.48,0,1,1,3.48-3.48A3.49,3.49,0,0,1,56.17,56.72Zm0-5a1.48,1.48,0,1,0,1.48,1.48A1.49,1.49,0,0,0,56.17,51.76Z"/><path class="cls-5" d="M66,56.72a3.48,3.48,0,1,1,3.49-3.48A3.48,3.48,0,0,1,66,56.72Zm0-5a1.48,1.48,0,1,0,1.49,1.48A1.48,1.48,0,0,0,66,51.76Z"/><path class="cls-4" d="M95.54,60.4H51.18a3.46,3.46,0,0,1-3.46-3.46v-7.4a3.46,3.46,0,0,1,3.46-3.46H95.54A3.46,3.46,0,0,1,99,49.54v7.4A3.46,3.46,0,0,1,95.54,60.4ZM51.18,48.08a1.47,1.47,0,0,0-1.46,1.46v7.4a1.46,1.46,0,0,0,1.46,1.46H95.54A1.46,1.46,0,0,0,97,56.94v-7.4a1.46,1.46,0,0,0-1.46-1.46Z"/><path class="cls-6" d="M56.17,56.72a3.48,3.48,0,1,1,3.48-3.48A3.49,3.49,0,0,1,56.17,56.72Zm0-5a1.48,1.48,0,1,0,1.48,1.48A1.49,1.49,0,0,0,56.17,51.76Z"/><path class="cls-5" d="M66,56.72a3.48,3.48,0,1,1,3.49-3.48A3.48,3.48,0,0,1,66,56.72Zm0-5a1.48,1.48,0,1,0,1.49,1.48A1.48,1.48,0,0,0,66,51.76Z"/><path class="cls-4" d="M95.54,77.64H51.18a3.46,3.46,0,0,1-3.46-3.46v-7.4a3.46,3.46,0,0,1,3.46-3.46H95.54A3.46,3.46,0,0,1,99,66.78v7.4A3.46,3.46,0,0,1,95.54,77.64ZM51.18,65.32a1.47,1.47,0,0,0-1.46,1.46v7.4a1.46,1.46,0,0,0,1.46,1.46H95.54A1.46,1.46,0,0,0,97,74.18v-7.4a1.46,1.46,0,0,0-1.46-1.46Z"/><path class="cls-6" d="M56.17,74a3.48,3.48,0,1,1,3.48-3.48A3.49,3.49,0,0,1,56.17,74Zm0-5a1.48,1.48,0,1,0,1.48,1.48A1.49,1.49,0,0,0,56.17,69Z"/><path class="cls-5" d="M66,74a3.48,3.48,0,1,1,3.49-3.48A3.48,3.48,0,0,1,66,74Zm0-5a1.48,1.48,0,1,0,1.49,1.48A1.48,1.48,0,0,0,66,69Z"/><g class="cls-7"><g class="cls-8"><rect class="cls-9" x="160.21" y="11.51" width="52.24" height="50.91"/></g></g><path class="cls-10" d="M176.62,61.88a3.74,3.74,0,0,1-2.94-1.41L161.57,45.36a2.32,2.32,0,0,1-.22-.3,3.72,3.72,0,0,1-.51-2.87l4.32-18.85a3.76,3.76,0,0,1,2-2.54l17.49-8.39a3.82,3.82,0,0,1,3.27,0l17.5,8.39a3.72,3.72,0,0,1,2,2.54l4.32,18.84a3.72,3.72,0,0,1-.72,3.17L199,60.47a3.78,3.78,0,0,1-3,1.41Zm9.71-49a3,3,0,0,0-1.27.29l-17.5,8.39a2.86,2.86,0,0,0-1.58,2l-4.32,18.85a2.89,2.89,0,0,0,.39,2.22h0a1.77,1.77,0,0,0,.16.22L174.33,60A2.93,2.93,0,0,0,176.62,61H196a2.91,2.91,0,0,0,2.29-1.1l12.11-15.11a2.91,2.91,0,0,0,.57-2.46l-4.33-18.84a2.9,2.9,0,0,0-1.58-2l-17.5-8.38A3,3,0,0,0,186.33,12.88Z"/><g class="cls-11"><g class="cls-8"><rect class="cls-10" x="166.88" y="17.8" width="38.89" height="37.94"/></g></g><path class="cls-6" d="M77.15,101.5c-4.66,0-19.35-.13-19.5-.13a1.5,1.5,0,0,1,0-3h0c.14,0,13.82.12,18.95.13a26.78,26.78,0,0,1,29.74-2.07A35.94,35.94,0,0,1,137.3,78.82a35.39,35.39,0,0,1,6.87.67,27.94,27.94,0,0,0,1.48-8.31A26.17,26.17,0,0,1,126,45.88c0-.69,0-1.4.09-2.12a27.9,27.9,0,0,0-8.43-1.3c-.7,0-1.45,0-2.3.11a1.52,1.52,0,0,1-1.54-1,42.77,42.77,0,0,0-82.86,9.36,1.49,1.49,0,0,1-1.47,1.34,23.12,23.12,0,0,0-5.71,45.46l6.54.13a1.5,1.5,0,1,1-.06,3l-6.72-.14a2.09,2.09,0,0,1-.35,0,26.13,26.13,0,0,1,4.95-51.37,45.77,45.77,0,0,1,88.12-9.81c.49,0,1,0,1.4,0a30.85,30.85,0,0,1,10.56,1.85,1.5,1.5,0,0,1,1,1.6,21.9,21.9,0,0,0-.2,3,23.17,23.17,0,0,0,18.46,22.64A1.51,1.51,0,0,1,148.65,70v.18c0,.11,0,.23,0,.34a30.92,30.92,0,0,1-2.13,11.29,1.51,1.51,0,0,1-1.74.92,32.91,32.91,0,0,0-36.55,16.54,1.5,1.5,0,0,1-1,.74,1.44,1.44,0,0,1-1.19-.2,23.8,23.8,0,0,0-28,1.4A1.51,1.51,0,0,1,77.15,101.5Z"/><path class="cls-6" d="M267.69,121.18H201.28a16.26,16.26,0,1,1,0-32.52,16,16,0,0,1,3.44.38,31,31,0,0,1,61.36-5.22c.56,0,1.09-.08,1.61-.08a18.72,18.72,0,1,1,0,37.44Zm-32-3h32a15.72,15.72,0,1,0,0-31.44,16.32,16.32,0,0,0-2.58.23,1.52,1.52,0,0,1-1.13-.26,1.5,1.5,0,0,1-.6-1,28,28,0,0,0-55.68,4.43c0,.2,0,.39,0,.59V91a1.51,1.51,0,0,1-.62,1.26,1.48,1.48,0,0,1-1.38.2,13.25,13.25,0,1,0-4.44,25.74Z"/><path class="cls-6" d="M213.72,72H152.08a26.1,26.1,0,0,1,0-52.2c.76,0,1.54,0,2.33.11A35.93,35.93,0,0,1,221.94,30a20.4,20.4,0,0,1,3.94-.39,21.16,21.16,0,0,1,17.81,32.6,1.48,1.48,0,0,1-1.6.65,28.38,28.38,0,0,0-6.38-.73,28.06,28.06,0,0,0-20.87,9.34A1.52,1.52,0,0,1,213.72,72Zm-61.64-49.2a23.1,23.1,0,0,0,0,46.2h61a31.06,31.06,0,0,1,22.65-9.84,31.51,31.51,0,0,1,6,.58,18.16,18.16,0,0,0-15.82-27.1,18.62,18.62,0,0,0-4.8.66A1.49,1.49,0,0,1,219.2,32a32.93,32.93,0,0,0-62.54-9.89,1.49,1.49,0,0,1-1.56.86A22.56,22.56,0,0,0,152.08,22.78Z"/><path class="cls-5" d="M47.51,117.25H40.22a1,1,0,0,1-1-1v-3.06a14.06,14.06,0,0,1-4.45-2.57l-2.66,1.53a1,1,0,0,1-1.36-.37l-3.65-6.31a1,1,0,0,1-.1-.76,1,1,0,0,1,.47-.61l2.65-1.53a13.33,13.33,0,0,1,0-5.14L27.47,95.9a1,1,0,0,1-.37-1.37l3.65-6.31a1,1,0,0,1,1.36-.37l2.66,1.53a14.06,14.06,0,0,1,4.45-2.57V83.75a1,1,0,0,1,1-1h7.29a1,1,0,0,1,1,1v3.06A14.06,14.06,0,0,1,53,89.38l2.66-1.53a1,1,0,0,1,1.36.37l3.65,6.31a1,1,0,0,1,.1.76,1,1,0,0,1-.47.61l-2.65,1.53a13.33,13.33,0,0,1,0,5.14l2.65,1.53a1,1,0,0,1,.47.61,1,1,0,0,1-.1.76L57,111.78a1,1,0,0,1-1.36.37L53,110.62a14.06,14.06,0,0,1-4.45,2.57v3.06A1,1,0,0,1,47.51,117.25Zm-6.29-2h5.29v-2.79a1,1,0,0,1,.72-1,11.92,11.92,0,0,0,4.91-2.84,1,1,0,0,1,1.19-.14l2.42,1.4,2.65-4.58L56,103.94a1,1,0,0,1-.48-1.1,11.82,11.82,0,0,0,.36-2.84,11.68,11.68,0,0,0-.36-2.83A1,1,0,0,1,56,96.06l2.42-1.39-2.65-4.59-2.42,1.4a1,1,0,0,1-1.19-.14,11.92,11.92,0,0,0-4.91-2.84,1,1,0,0,1-.72-1V84.75H41.22v2.79a1,1,0,0,1-.72,1,11.92,11.92,0,0,0-4.91,2.84,1,1,0,0,1-1.19.14L32,90.08l-2.65,4.59,2.43,1.39a1,1,0,0,1,.47,1.11,11.3,11.3,0,0,0,0,5.66,1,1,0,0,1-.47,1.11l-2.43,1.4L32,109.92l2.42-1.4a1,1,0,0,1,1.19.14,11.92,11.92,0,0,0,4.91,2.84,1,1,0,0,1,.72,1Z"/><path class="cls-5" d="M43.87,108.64A8.64,8.64,0,1,1,52.5,100,8.65,8.65,0,0,1,43.87,108.64Zm0-15.28A6.64,6.64,0,1,0,50.5,100,6.65,6.65,0,0,0,43.87,93.36Z"/></g></svg>